<?xml version="1.0" encoding="UTF-8" standalone="no"?>
<svg
   xmlns:dc="http://purl.org/dc/elements/1.1/"
   xmlns:cc="http://creativecommons.org/ns#"
   xmlns:rdf="http://www.w3.org/1999/02/22-rdf-syntax-ns#"
   xmlns:svg="http://www.w3.org/2000/svg"
   xmlns="http://www.w3.org/2000/svg"
   xmlns:sodipodi="http://sodipodi.sourceforge.net/DTD/sodipodi-0.dtd"
   xmlns:inkscape="http://www.inkscape.org/namespaces/inkscape"
   width="210mm"
   height="297mm"
   viewBox="0 0 210 297"
   version="1.1"
   id="svg1472"
   inkscape:version="1.0.2 (e86c870879, 2021-01-15, custom)"
   sodipodi:docname="cable.svg">
  <defs
     id="defs1466" />
  <sodipodi:namedview
     id="base"
     pagecolor="#ffffff"
     bordercolor="#666666"
     borderopacity="1.0"
     inkscape:pageopacity="0.0"
     inkscape:pageshadow="2"
     inkscape:zoom="3.959798"
     inkscape:cx="447.87329"
     inkscape:cy="759.16262"
     inkscape:document-units="mm"
     inkscape:current-layer="layer1"
     inkscape:document-rotation="0"
     showgrid="false"
     inkscape:window-width="1582"
     inkscape:window-height="977"
     inkscape:window-x="288"
     inkscape:window-y="1638"
     inkscape:window-maximized="0" />
  <metadata
     id="metadata1469">
    <rdf:RDF>
      <cc:Work
         rdf:about="">
        <dc:format>image/svg+xml</dc:format>
        <dc:type
           rdf:resource="http://purl.org/dc/dcmitype/StillImage" />
        <dc:title></dc:title>
      </cc:Work>
    </rdf:RDF>
  </metadata>
  <g
     inkscape:label="Capa 1"
     inkscape:groupmode="layer"
     id="layer1">
    <path
       style="fill:#000000;stroke-width:0.133706"
       d="m 97.264624,221.0862 c -0.14708,-0.0255 -0.92926,-0.1179 -1.73818,-0.20532 -4.50844,-0.48721 -11.24518,-2.88892 -16.32551,-5.82019 -7.55904,-4.36145 -15.922106,-12.58755 -22.146069,-21.78337 -2.218106,-3.27723 -5.386843,-9.0666 -9.847295,-17.99129 -2.799384,-5.60115 -3.14601,-6.41367 -3.034253,-7.11256 0.126279,-0.7897 0.710997,-1.86403 0.986019,-1.81166 0.186096,0.0354 0.239839,0.24952 0.295845,1.17846 0.04779,0.79272 0.149305,1.27633 0.336508,1.60313 0.315951,0.55156 1.18244,1.02672 2.102039,1.1527 0.596125,0.0817 0.635103,0.0684 0.635103,-0.21543 0,-1.07448 -3.268995,-7.75511 -5.763915,-11.77935 -5.854683,-9.44345 -14.212946,-16.7123 -23.317111,-20.27799 -2.647837,-1.03704 -6.458881,-2.17183 -7.296128,-2.17252 -0.115345,-1e-4 -0.513159,-0.0903 -0.884033,-0.20042 -0.77727,-0.23083 -0.752669,0.0682 -0.219461,-2.66785 0.415419,-2.13168 0.493359,-2.34643 0.85159,-2.34643 0.434366,0 3.046075,0.6214 5.408738,1.28689 5.320183,1.49854 10.572083,3.98327 14.856634,7.02882 5.314493,3.77766 10.180123,8.85328 14.683121,15.3168 0.576365,0.82731 1.069065,1.5042 1.094888,1.5042 0.0519,0 0.04791,-0.0103 -1.659167,-4.27859 -4.10164,-10.25554 -7.058346,-20.25263 -7.800213,-26.37374 l -0.162914,-1.34419 0.362037,-0.31141 c 0.531695,-0.45735 2.02916,-0.87383 2.966093,-0.82495 l 0.779471,0.0407 0.292857,1.87188 c 0.567293,3.62603 2.148468,10.01099 3.575986,14.44024 l 0.560204,1.73818 0.08134,-5.88306 c 0.04587,-3.31746 0.150536,-6.37869 0.24001,-7.01956 0.507999,-3.63868 1.933198,-8.12912 3.698282,-11.65236 0.762637,-1.52228 1.080089,-1.98564 1.36036,-1.98564 0.241633,0 3.578358,1.51982 3.95884,1.80318 0.234698,0.17479 0.207593,0.2714 -0.551167,1.96472 -1.886037,4.20904 -2.805978,7.49561 -3.305174,11.80801 -0.264553,2.28541 -0.262855,7.10857 0.0034,9.64392 0.622565,5.92836 2.319111,11.82598 5.07348,17.63671 1.505718,3.17653 3.764983,7.14946 4.065645,7.14946 0.173363,0 0.405206,-0.72267 0.505436,-1.57546 l 0.08499,-0.72313 -0.985916,-0.91983 c -0.732354,-0.68326 -0.947096,-0.95864 -0.834971,-1.07077 0.424233,-0.42423 2.771625,0.57872 3.625871,1.54919 0.34852,0.39595 1.80033,3.13063 4.4153,8.31682 4.24729,8.42356 5.60005,10.9921 7.34397,13.94423 8.12814,13.75952 15.96516,19.47668 25.638586,18.70352 5.79903,-0.46349 11.87418,-3.22583 20.39015,-9.2713 6.32962,0.84365 9.67196,5.82344 9.65897,12.60325 -1.31124,5.56014 -12.31062,13.38854 -23.29697,15.08211 -1.03379,0.15937 -2.60239,0.22713 -5.94991,0.25704 -2.500296,0.0223 -4.666336,0.0197 -4.813406,-0.006 z M 55.815801,172.36421 c 3.027777,-0.80126 5.652009,-2.83868 6.810552,-5.28763 0.404595,-0.85525 0.752356,-2.24904 0.616142,-2.46944 -0.123468,-0.19977 -0.264027,-0.0302 -0.712365,0.85935 -0.691619,1.37227 -2.866969,3.58493 -4.677962,4.75821 -0.994745,0.64446 -2.742798,1.2736 -4.289355,1.54378 -1.428738,0.24959 -3.939079,0.17947 -5.234541,-0.14621 -0.994486,-0.25002 -1.073671,-0.25182 -0.88125,-0.02 0.219801,0.26484 1.38474,0.74345 2.339281,0.96108 1.231987,0.28088 4.640984,0.16827 6.029498,-0.19918 z M 9.7541298,134.10459 c -0.366546,-0.18828 -1.004076,-0.26754 -2.941529,-0.36573 -2.458646,-0.12459 -2.479605,-0.12827 -3.476353,-0.61009 -1.081737,-0.52291 -1.333807,-0.56841 -2.306426,-0.41633 -0.78668703,0.12301 -0.82113303,-0.033 -0.16713203,-0.75688 0.53141803,-0.58822 0.53367803,-0.59765 0.28488703,-1.18936 -0.20357603,-0.48416 -0.145609,-0.93233 0.120589,-0.93233 0.09555,0 0.36113,0.23662 0.590175,0.52581 0.229881,0.29025 0.609283,0.58468 0.846897,0.65724 0.236748,0.0723 1.302882,0.16122 2.369186,0.19764 1.620366,0.0553 2.125366,0.12576 3.075235,0.42882 1.096443,0.34983 1.156734,0.35512 1.710575,0.14988 0.5158282,-0.19114 0.5821052,-0.1918 0.6532232,-0.007 0.04353,0.11345 0.0027,0.43782 -0.09068,0.72084 -0.09443,0.28612 -0.140868,0.81597 -0.1046,1.19341 0.03588,0.37336 0.02893,0.67098 -0.01543,0.66139 -0.04436,-0.01 -0.291239,-0.12562 -0.5486232,-0.25783 z M 38.634597,122.68357 c 0,-0.0351 0.162886,-0.39601 0.361969,-0.80193 0.407626,-0.83114 0.391913,-0.96816 -0.298878,-2.60628 -0.567455,-1.34564 -0.693308,-2.4587 -0.403613,-3.56959 0.413194,-1.58447 0.412656,-1.61187 -0.04415,-2.24796 -0.229662,-0.3198 -0.417565,-0.6398 -0.417565,-0.71113 0,-0.33854 1.045327,-0.25732 1.265109,0.0983 0.139067,0.22502 0.423223,0.16772 0.953758,-0.19231 0.468687,-0.31805 1.257487,-0.4587 1.257487,-0.22421 0,0.0605 -0.267663,0.5284 -0.594806,1.03973 l -0.594807,0.92969 0.337743,1.13299 c 0.273784,0.91843 0.354899,1.55077 0.428338,3.33913 0.08914,2.17069 0.09688,2.21438 0.481645,2.71823 0.322868,0.4228 0.357721,0.53403 0.199896,0.63794 -0.214342,0.14111 -1.042275,0.0326 -1.285683,-0.16847 -0.170817,-0.14113 -0.532551,0.005 -1.096225,0.44229 -0.305666,0.23723 -0.550218,0.31883 -0.550218,0.18359 z m 1.203353,-4.79082 c 0,-1.09427 -0.0524,-1.58372 -0.189627,-1.77139 -0.28762,-0.39335 -0.412658,-0.13035 -0.406249,0.85446 0.0051,0.78922 0.364791,2.42899 0.532757,2.42899 0.03472,0 0.06312,-0.68042 0.06312,-1.51206 z m 15.786911,-3.26792 c -0.15808,-0.12869 -0.361674,-0.38441 -0.452431,-0.56825 -0.124328,-0.25185 -0.287877,-0.3445 -0.663335,-0.37576 -0.570508,-0.0475 -0.613262,-0.14745 -0.216481,-0.50603 0.536862,-0.48518 0.801159,-0.98602 0.926181,-1.75509 0.192454,-1.18389 0.839962,-2.3513 1.946609,-3.50962 1.104595,-1.15617 1.313087,-1.56913 1.194199,-2.3654 -0.05155,-0.34525 -0.02767,-0.59063 0.06293,-0.64662 0.244894,-0.15136 0.788755,0.30936 0.907972,0.76917 0.106307,0.41001 0.147274,0.43448 0.745737,0.44534 0.398563,0.007 0.715355,0.0936 0.854793,0.23303 0.274866,0.27486 0.183462,0.37757 -0.840635,0.94464 l -0.759787,0.42071 -0.628344,1.60177 c -0.64416,1.64209 -1.048825,2.38373 -1.725875,3.16306 -0.620025,0.71368 -0.723904,1.00097 -0.624164,1.72616 0.082,0.59624 0.06587,0.65687 -0.174803,0.65687 -0.145831,0 -0.394485,-0.10529 -0.552564,-0.23398 z m 2.066566,-4.7709 c 0.344633,-0.69159 0.431588,-1.27929 0.189278,-1.27929 -0.413895,0 -1.458377,1.6803 -1.662239,2.67411 l -0.096,0.46798 0.619219,-0.59977 c 0.340569,-0.32987 0.767951,-0.89823 0.949738,-1.26303 z"
       id="path2049"
       sodipodi:nodetypes="cssssscssssssscsssssssscsccsscssssssssssscsssscsccsscccsssssssscccsssssssscsscsscccsssssssssscssssscsssscssssssssssscsscssssssssscsss" />
  </g>
</svg>
