<?xml version="1.0" encoding="UTF-8" standalone="no"?>
<svg
   id="Flat"
   height="512"
   viewBox="0 0 512 512"
   width="512"
   version="1.1"
   sodipodi:docname="convert.svg"
   inkscape:version="1.1 (c68e22c387, 2021-05-23)"
   xmlns:inkscape="http://www.inkscape.org/namespaces/inkscape"
   xmlns:sodipodi="http://sodipodi.sourceforge.net/DTD/sodipodi-0.dtd"
   xmlns="http://www.w3.org/2000/svg"
   xmlns:svg="http://www.w3.org/2000/svg">
  <defs
     id="defs39">
    <marker
       style="overflow:visible"
       id="TriangleOutL"
       refX="0.0"
       refY="0.0"
       orient="auto"
       inkscape:stockid="TriangleOutL"
       inkscape:isstock="true">
      <path
         transform="scale(0.8)"
         style="fill-rule:evenodd;fill:context-stroke;stroke:context-stroke;stroke-width:1.0pt"
         d="M 5.77,0.0 L -2.88,5.0 L -2.88,-5.0 L 5.77,0.0 z "
         id="path1344" />
    </marker>
  </defs>
  <sodipodi:namedview
     id="namedview37"
     pagecolor="#ffffff"
     bordercolor="#666666"
     borderopacity="1.0"
     inkscape:pageshadow="2"
     inkscape:pageopacity="0.0"
     inkscape:pagecheckerboard="0"
     showgrid="false"
     inkscape:zoom="0.73535156"
     inkscape:cx="-208.06374"
     inkscape:cy="430.40637"
     inkscape:window-width="2160"
     inkscape:window-height="1361"
     inkscape:window-x="-9"
     inkscape:window-y="-9"
     inkscape:window-maximized="1"
     inkscape:current-layer="Flat" />
  <path
     style="fill:none;fill-rule:evenodd;stroke:#000000;stroke-width:20;stroke-miterlimit:3.70000005;stroke-dasharray:none;stroke-opacity:1"
     id="path63"
     sodipodi:type="arc"
     sodipodi:cx="256"
     sodipodi:cy="255.17552"
     sodipodi:rx="220.75049"
     sodipodi:ry="220.75049"
     sodipodi:start="4.1887902"
     sodipodi:end="5.2359878"
     sodipodi:arc-type="arc"
     d="m 145.62475,63.999992 a 220.75049,220.75049 0 0 1 220.7505,4e-6"
     sodipodi:open="true" />
  <path
     style="fill:none;fill-rule:evenodd;stroke:#000000;stroke-width:20;stroke-miterlimit:3.70000005;stroke-dasharray:none;stroke-opacity:1"
     id="path63-1"
     sodipodi:type="arc"
     sodipodi:cx="-256"
     sodipodi:cy="-256.82446"
     sodipodi:rx="220.75049"
     sodipodi:ry="220.75049"
     sodipodi:start="4.1887902"
     sodipodi:end="5.2359878"
     sodipodi:arc-type="arc"
     sodipodi:open="true"
     d="m -366.37525,-447.99999 a 220.75049,220.75049 0 0 1 220.7505,0"
     transform="scale(-1)" />
  <path
     style="fill:none;stroke:#000000;stroke-width:20;stroke-linecap:butt;stroke-linejoin:miter;stroke-miterlimit:4;stroke-dasharray:none;stroke-opacity:1"
     d="M 318.48053,76.999156 366.37525,63.999996 353.37609,16.105272"
     id="path2260" />
  <path
     style="fill:none;stroke:#000000;stroke-width:20;stroke-linecap:butt;stroke-linejoin:miter;stroke-miterlimit:4;stroke-dasharray:none;stroke-opacity:1"
     d="m 193.51947,435.00083 -47.89472,12.99916 12.99916,47.89473"
     id="path2260-5" />
  <g
     id="g2459"
     transform="matrix(0.58267495,0,0,0.58267495,242.83479,106.83515)">
    <path
       style="fill:#a3e261"
       d="m 412.448,366.471 c 0,90.985 -74.082,146.164 -165.215,145.524 -4.217,-0.034 -8.389,-0.183 -12.526,-0.446 h -0.011 C 149.883,506.017 83.172,450.553 84.395,364.105 c 0.64,-44.778 19.223,-85.191 48.87,-114.414 12.8,-12.606 20.972,-29.064 23.418,-46.87 0.08,-0.526 0.149,-0.994 0.229,-1.406 8.709,-45.475 46.367,-79.682 91.499,-79.682 h 0.48 c 44.915,0.24 82.345,34.367 91.019,79.682 0.046,0.206 0.08,0.423 0.114,0.663 2.949,18.389 11.395,35.429 24.549,48.618 29.577,29.658 47.875,70.575 47.875,115.775 z"
       id="path2391" />
    <path
       style="fill:#93cc52"
       d="m 248.89,121.733 -1.143,34.801 c 0,0 -15.629,11.835 -17.372,41.167 -4.572,76.954 -64.573,104.383 -64.573,182.099 0,77.716 28.001,108.194 68.916,131.737 l -0.011,0.011 h -0.011 C 149.882,506.016 83.172,450.552 84.395,364.104 c 0.64,-44.778 19.223,-85.191 48.87,-114.414 12.8,-12.606 20.972,-29.064 23.418,-46.87 0.08,-0.526 0.149,-0.994 0.229,-1.406 8.709,-45.475 46.367,-79.682 91.499,-79.682 z"
       id="path2393" />
    <path
       style="fill:#b25719"
       d="m 246.627,154.299 c -0.495,0 -0.995,-0.043 -1.498,-0.131 -4.661,-0.822 -7.773,-5.265 -6.953,-9.926 v 0 c 0.136,-0.778 13.257,-78.168 -19.014,-110.439 -3.348,-3.348 -3.348,-8.775 0,-12.121 3.348,-3.348 8.775,-3.348 12.121,0 38.585,38.585 24.399,122.002 23.777,125.533 -0.735,4.158 -4.352,7.084 -8.433,7.084 z"
       id="path2395" />
    <path
       style="fill:#93cc52"
       d="m 228.496,141.119 c 5.048,-0.051 8.389,-0.114 11.401,-0.314 2.96,-0.17 5.391,-0.28 7.845,-0.283 2.453,-0.017 4.88,0.095 7.834,0.262 3.009,0.199 6.348,0.271 11.411,0.337 0.015,5.097 -2.673,9.214 -6.25,12.135 -3.626,2.896 -8.321,4.42 -12.995,4.407 -4.673,-0.008 -9.364,-1.53 -12.985,-4.43 -3.573,-2.924 -6.26,-7.032 -6.261,-12.114 z"
       id="path2397" />
    <path
       style="fill:#b25719"
       d="m 276.431,69.153 c -30.046,0 -43.912,-20.309 -44.6,-21.349 -1.917,-2.895 -1.125,-6.794 1.769,-8.712 2.885,-1.91 6.768,-1.129 8.692,1.741 0.693,1.014 16.202,22.948 51.618,13.223 3.348,-0.922 6.807,1.049 7.726,4.398 0.919,3.348 -1.049,6.807 -4.398,7.726 -7.649,2.099 -14.577,2.973 -20.807,2.973 z"
       id="path2399" />
    <path
       style="fill:#2fcc6e"
       d="M 384.905,76.859 427.623,31.74 371.103,5.929 C 336.406,-9.917 295.569,7.192 282.527,43.037 l -1.178,3.239 c -3.354,9.221 -1.347,19.541 5.221,26.832 l 2.307,2.561 c 25.529,28.34 69.803,28.889 96.028,1.19 z"
       id="path2401" />
    <g
       id="g2403">
</g>
    <g
       id="g2405">
</g>
    <g
       id="g2407">
</g>
    <g
       id="g2409">
</g>
    <g
       id="g2411">
</g>
    <g
       id="g2413">
</g>
    <g
       id="g2415">
</g>
    <g
       id="g2417">
</g>
    <g
       id="g2419">
</g>
    <g
       id="g2421">
</g>
    <g
       id="g2423">
</g>
    <g
       id="g2425">
</g>
    <g
       id="g2427">
</g>
    <g
       id="g2429">
</g>
    <g
       id="g2431">
</g>
  </g>
  <g
     id="g2526"
     transform="matrix(0.28937059,0,0,0.28937059,-875.39575,-143.4682)">
    <path
       style="fill:#a3e261"
       d="m 400.684,359.928 c 0,89.791 -73.109,144.245 -163.047,143.613 -4.162,-0.034 -8.279,-0.18 -12.362,-0.44 h -0.011 c -83.7,-5.459 -149.535,-60.195 -148.328,-145.508 0.632,-44.19 18.971,-84.072 48.228,-112.912 12.632,-12.441 20.697,-28.682 23.11,-46.254 0.079,-0.519 0.147,-0.981 0.226,-1.387 8.594,-44.878 45.758,-78.636 90.298,-78.636 h 0.474 c 44.326,0.237 81.264,33.915 89.825,78.636 0.045,0.203 0.079,0.417 0.113,0.654 2.91,18.148 11.245,34.964 24.227,47.98 29.19,29.268 47.247,69.646 47.247,114.254 z"
       id="path2461" />
    <path
       style="fill:#93cc52"
       d="m 239.273,118.403 -1.128,34.344 c 0,0 -15.424,11.679 -17.144,40.626 -4.512,75.944 -63.725,103.013 -63.725,179.709 0,76.696 27.633,106.773 68.011,130.008 l -0.011,0.011 h -0.011 C 141.565,497.642 75.73,442.906 76.937,357.593 c 0.632,-44.19 18.971,-84.072 48.228,-112.912 12.632,-12.441 20.697,-28.682 23.11,-46.254 0.079,-0.519 0.147,-0.981 0.226,-1.387 8.594,-44.878 45.758,-78.636 90.298,-78.636 z"
       id="path2463" />
    <path
       style="fill:#2fcc6e"
       d="M 392.922,84.268 435.079,39.741 379.303,14.269 C 345.062,-1.369 304.76,15.515 291.89,50.89 l -6.543,17.984 12.809,14.219 c 25.193,27.97 68.886,28.511 94.766,1.175 z"
       id="path2465" />
    <path
       d="m 322.042,476.041 c -24.359,12.671 -53.558,19.279 -84.35,19.035 -47.221,-0.333 -88.675,-16.297 -116.727,-44.949 -23.78,-24.29 -36.08,-56.247 -35.568,-92.416 0.573,-40.515 16.805,-78.516 45.706,-107.003 13.813,-13.615 22.889,-31.77 25.557,-51.124 0.05,-0.361 0.099,-0.682 0.151,-0.955 3.877,-20.24 14.286,-38.602 29.309,-51.704 3.521,-3.07 3.887,-8.414 0.815,-11.935 -3.071,-3.521 -8.415,-3.887 -11.935,-0.815 -17.861,15.576 -30.222,37.336 -34.808,61.277 -0.1,0.526 -0.2,1.137 -0.294,1.824 -2.161,15.676 -9.502,30.373 -20.673,41.383 -32.088,31.628 -50.111,73.822 -50.747,118.812 -0.577,40.775 13.391,76.908 40.395,104.49 31.229,31.899 76.934,49.667 128.697,50.032 0.532,0.003 1.064,0.006 1.596,0.006 32.986,0 64.31,-7.233 90.681,-20.952 4.144,-2.155 5.757,-7.264 3.6,-11.409 -2.151,-4.142 -7.259,-5.755 -11.405,-3.597 z"
       id="path2467" />
    <path
       d="m 266.452,80.049 c 4.905,0 10.232,-0.54 15.982,-1.766 l 9.435,10.474 c 13.583,15.079 33.013,23.872 53.306,24.123 0.3,0.003 0.597,0.006 0.896,0.006 19.974,-10e-4 39.246,-8.28 52.992,-22.8 l 42.156,-44.527 c 1.878,-1.983 2.682,-4.751 2.161,-7.432 -0.521,-2.68 -2.305,-4.945 -4.789,-6.079 L 382.817,6.575 c -18.461,-8.43 -39.784,-8.769 -58.504,-0.926 -18.718,7.842 -33.435,23.278 -40.373,42.35 l -4.99,13.715 c -28.928,6.119 -42.419,-10.556 -44.148,-12.9 -3.434,-6.579 -7.675,-12.644 -12.904,-17.872 -3.304,-3.304 -8.66,-3.304 -11.962,0 -3.304,3.304 -3.304,8.66 0,11.962 16.2,16.2 20.806,43.919 21.407,67.349 -9.263,0.721 -18.335,2.764 -27.05,6.144 -4.356,1.69 -6.517,6.59 -4.828,10.946 1.688,4.356 6.589,6.517 10.946,4.828 6.691,-2.595 13.637,-4.24 20.73,-4.931 -0.374,7.868 -1.061,14.454 -1.612,18.839 -1.582,-0.837 -3.069,-1.919 -4.399,-3.248 -3.304,-3.305 -8.66,-3.304 -11.962,0 -3.304,3.304 -3.304,8.66 0,11.962 6.886,6.886 15.93,10.328 24.975,10.328 9.045,0 18.09,-3.442 24.975,-10.328 3.304,-3.304 3.304,-8.66 0,-11.962 -3.304,-3.304 -8.66,-3.304 -11.962,0 -1.375,1.375 -2.918,2.481 -4.56,3.329 0.57,-4.761 1.188,-11.207 1.526,-18.715 35.536,4.307 65.342,32.906 72.674,71.192 0.024,0.123 0.046,0.256 0.068,0.39 3.243,20.235 12.435,38.431 26.584,52.621 28.875,28.955 44.777,67.409 44.777,108.278 0,41.751 -16.47,76.87 -47.629,101.561 -3.661,2.901 -4.277,8.222 -1.376,11.883 1.669,2.107 4.14,3.205 6.635,3.205 1.841,0 3.694,-0.598 5.248,-1.831 34.848,-27.615 54.04,-68.393 54.04,-114.821 0,-45.379 -17.656,-88.075 -49.715,-120.224 -11.624,-11.657 -19.182,-26.647 -21.861,-43.359 -0.052,-0.323 -0.104,-0.624 -0.157,-0.894 -8.852,-46.219 -45.538,-80.604 -89.106,-85.013 -0.274,-10.909 -1.362,-22.799 -3.93,-34.425 6.108,2.395 13.446,4.041 22.078,4.041 z m 33.385,-26.266 c 5.408,-14.865 16.422,-26.418 31.012,-32.532 14.589,-6.111 30.549,-5.859 44.938,0.712 l 45.012,20.556 -34.02,35.932 C 375.903,89.939 361.2,96.157 345.385,95.96 329.568,95.764 315.026,89.184 304.438,77.43 l -9.407,-10.442 z"
       id="path2469" />
    <g
       id="g2471">
</g>
    <g
       id="g2473">
</g>
    <g
       id="g2475">
</g>
    <g
       id="g2477">
</g>
    <g
       id="g2479">
</g>
    <g
       id="g2481">
</g>
    <g
       id="g2483">
</g>
    <g
       id="g2485">
</g>
    <g
       id="g2487">
</g>
    <g
       id="g2489">
</g>
    <g
       id="g2491">
</g>
    <g
       id="g2493">
</g>
    <g
       id="g2495">
</g>
    <g
       id="g2497">
</g>
    <g
       id="g2499">
</g>
  </g>
  <g
     id="g2599"
     transform="matrix(0.43335818,0,0,0.43335818,9.0603062,145.06014)">
    <path
       style="fill:#f94848"
       d="m 465.19,285.054 c 0,61.607 -40.062,146.747 -88.501,193.258 -21.482,20.655 -44.62,33.688 -66.647,33.688 -13.922,0 -27.808,-2.236 -39.754,-5.843 -16.368,-4.954 -33.775,-4.954 -50.143,0 C 208.2,509.764 194.315,512 180.392,512 157.316,512 133.004,497.682 110.656,475.285 63.614,428.181 25.244,345.338 25.244,285.053 c 0,-88.945 53.207,-142.683 103.238,-155.654 23.966,-6.214 51.774,-2.211 74.232,3.632 23.225,6.053 47.363,7.066 70.884,3.039 4.744,-0.815 9.45,-1.828 14.12,-3.039 22.459,-5.843 50.254,-9.846 74.232,-3.632 50.034,12.972 103.24,66.71 103.24,155.655 z"
       id="path2528" />
    <path
       style="fill:#e23d3d"
       d="m 376.687,478.307 c -59.444,10.504 -105.23,7.594 -139.729,-0.76 -56.335,-13.641 -98.243,-61.156 -105.227,-118.696 -17.493,-144.11 76.667,-186.066 76.667,-186.066 27.598,12.539 58.63,5.843 58.63,5.843 -19.803,-19.79 6.572,-42.558 6.572,-42.558 -23.521,4.027 -47.66,3.014 -70.884,-3.039 -22.459,-5.843 -50.266,-9.846 -74.232,-3.632 -50.033,12.972 -103.239,66.71 -103.239,155.655 0,88.933 83.497,226.946 155.147,226.946 13.922,0 27.808,-2.236 39.754,-5.843 16.368,-4.954 33.774,-4.954 50.143,0 11.946,3.607 25.831,5.843 39.754,5.843 22.026,0 45.164,-13.033 66.647,-33.688 -0.003,-0.003 0,0 -0.003,-0.005 z"
       id="path2530" />
    <path
       style="fill:#c7f492"
       d="m 486.756,5.506 c 0,0 -12.354,86.116 -77.419,111.182 -62.2,23.966 -117.643,-40.828 -140.385,-35.726 -1.025,0.21 -1.977,0.581 -2.866,1.112 -0.037,0.012 -0.049,0.025 -0.049,0.025 l 0.012,-0.049 c 0.766,-2.322 25.708,-76.616 89.761,-81.484 65.064,-4.943 100.47,24.706 130.946,4.94 z"
       id="path2532" />
    <path
       style="fill:#a3e261"
       d="m 486.756,5.506 c 0,0 -39.531,48.179 -95.122,48.179 -48.883,0 -108.909,21.965 -122.683,27.277 -1.655,0.63 -2.631,1.025 -2.866,1.112 -0.037,0.012 -0.049,0.025 -0.049,0.025 l 0.012,-0.049 c 0.766,-2.322 25.708,-76.616 89.761,-81.484 65.065,-4.943 100.471,24.706 130.947,4.94 z"
       id="path2534" />
    <ellipse
       transform="matrix(-0.0989,-0.9951,0.9951,-0.0989,186.5864,663.8789)"
       style="fill:#fc8181"
       cx="393.87799"
       cy="247.459"
       rx="44.464001"
       ry="28.771"
       id="ellipse2536" />
    <path
       style="fill:#e23d3d"
       d="m 291.289,166.437 c 0,10.118 -15.887,18.543 -36.974,20.457 -2.94,0.272 -5.979,0.408 -9.092,0.408 -3.249,0 -6.411,-0.148 -9.463,-0.432 -20.89,-1.989 -36.591,-10.377 -36.591,-20.433 z"
       id="path2538" />
    <path
       style="fill:#b25719"
       d="m 280.368,81.012 -33.787,51.316 c 2.532,10.402 4.719,21.866 6.14,34.108 0.778,6.609 1.334,13.441 1.594,20.457 -2.94,0.272 -5.979,0.408 -9.092,0.408 -3.249,0 -6.411,-0.148 -9.463,-0.432 -0.272,-7.017 -0.877,-13.836 -1.705,-20.433 -6.053,-47.969 -24.559,-83.3 -24.781,-83.695 -2.397,-4.521 -0.679,-10.13 3.842,-12.526 4.521,-2.409 10.13,-0.692 12.526,3.83 0.544,1.038 7.35,14.046 14.219,34.8 l 25.041,-38.024 c 2.804,-4.274 8.561,-5.448 12.823,-2.631 4.274,2.804 5.46,8.548 2.643,12.822 z"
       id="path2540" />
    <g
       id="g2542">
</g>
    <g
       id="g2544">
</g>
    <g
       id="g2546">
</g>
    <g
       id="g2548">
</g>
    <g
       id="g2550">
</g>
    <g
       id="g2552">
</g>
    <g
       id="g2554">
</g>
    <g
       id="g2556">
</g>
    <g
       id="g2558">
</g>
    <g
       id="g2560">
</g>
    <g
       id="g2562">
</g>
    <g
       id="g2564">
</g>
    <g
       id="g2566">
</g>
    <g
       id="g2568">
</g>
    <g
       id="g2570">
</g>
  </g>
  <g
     id="g2663"
     transform="matrix(2.5774238,0,0,2.5774238,-1022.2731,-151.81049)">
    <g
       id="g2607">
	<g
   id="g2605">
		<path
   d="m 26.12,14.488 c 0.879,-1.468 2.27,-3.569 4.027,-5.585 h 0.002 C 31.637,7.192 34.551,4.996 34.551,4.996 34.989,4.665 34.942,4.204 34.444,3.972 L 30.922,2.326 c -0.498,-0.233 -1.175,-0.063 -1.505,0.376 0,0 -2.605,3.737 -5.671,11.692 -9.48,-4.288 -18.491,1.718 -18.491,12.162 0,10.909 8.393,27.48 19.743,22.478 11.954,5.173 19.749,-11.568 19.749,-22.478 0,-10.534 -8.1,-16.71 -18.627,-12.068 z"
   id="path2601" />

		<path
   d="m 23.997,10.955 c 0.548,-0.046 1.032,-0.531 1.076,-1.078 0,0 0.352,-4.266 -2.621,-7.242 -2.982,-2.977 -7.24,-2.622 -7.24,-2.622 -0.548,0.046 -1.032,0.531 -1.077,1.078 0,0 -0.358,4.268 2.619,7.245 2.975,2.974 7.243,2.619 7.243,2.619 z"
   id="path2603" />

	</g>

</g>
    <g
       id="g2609">
</g>
    <g
       id="g2611">
</g>
    <g
       id="g2613">
</g>
    <g
       id="g2615">
</g>
    <g
       id="g2617">
</g>
    <g
       id="g2619">
</g>
    <g
       id="g2621">
</g>
    <g
       id="g2623">
</g>
    <g
       id="g2625">
</g>
    <g
       id="g2627">
</g>
    <g
       id="g2629">
</g>
    <g
       id="g2631">
</g>
    <g
       id="g2633">
</g>
    <g
       id="g2635">
</g>
    <g
       id="g2637">
</g>
  </g>
  <g
     id="g2733"
     transform="matrix(0.19147788,0,0,0.19147788,-696.32744,-91.451734)">
    <g
       id="g2669">
	<g
   id="g2667">
		<path
   d="m 333.448,479.637 c -2.152,-4.141 -7.26,-5.753 -11.406,-3.596 -24.359,12.671 -53.557,19.279 -84.35,19.035 -47.221,-0.333 -88.675,-16.297 -116.727,-44.95 -23.78,-24.29 -36.08,-56.247 -35.568,-92.416 0.573,-40.515 16.805,-78.516 45.706,-107.003 13.813,-13.615 22.889,-31.77 25.557,-51.124 0.05,-0.361 0.099,-0.682 0.151,-0.955 3.877,-20.24 14.286,-38.602 29.309,-51.704 3.521,-3.07 3.887,-8.414 0.815,-11.935 -3.072,-3.521 -8.415,-3.887 -11.935,-0.815 -17.861,15.576 -30.222,37.336 -34.808,61.277 -0.1,0.526 -0.2,1.137 -0.294,1.824 -2.161,15.676 -9.502,30.373 -20.673,41.383 -32.088,31.628 -50.111,73.822 -50.747,118.812 -0.578,40.775 13.391,76.908 40.395,104.49 31.229,31.899 76.934,49.667 128.697,50.032 0.532,0.003 1.064,0.006 1.596,0.006 32.986,0 64.31,-7.233 90.681,-20.952 4.145,-2.156 5.758,-7.264 3.601,-11.409 z"
   id="path2665" />

	</g>

</g>
    <g
       id="g2675">
	<g
   id="g2673">
		<path
   d="m 282.434,78.283 9.435,10.474 c 13.583,15.079 33.013,23.872 53.306,24.123 0.3,0.003 0.597,0.006 0.896,0.006 19.974,-10e-4 39.246,-8.28 52.992,-22.8 l 42.156,-44.527 c 1.878,-1.983 2.682,-4.751 2.161,-7.432 -0.521,-2.68 -2.305,-4.945 -4.789,-6.079 L 382.817,6.575 c -18.461,-8.43 -39.784,-8.769 -58.504,-0.926 -18.718,7.842 -33.435,23.278 -40.373,42.35 l -4.99,13.715 c -28.928,6.119 -42.419,-10.556 -44.148,-12.9 -3.434,-6.579 -7.675,-12.644 -12.904,-17.872 -3.304,-3.304 -8.66,-3.304 -11.962,0 -3.304,3.304 -3.304,8.66 0,11.962 16.2,16.2 20.806,43.919 21.407,67.349 -9.263,0.721 -18.335,2.764 -27.05,6.144 -4.356,1.69 -6.517,6.59 -4.828,10.946 1.688,4.356 6.589,6.517 10.946,4.828 6.691,-2.595 13.637,-4.24 20.731,-4.931 -0.375,7.868 -1.061,14.454 -1.612,18.839 -1.582,-0.837 -3.069,-1.919 -4.399,-3.248 -3.304,-3.305 -8.66,-3.304 -11.962,0 -3.304,3.304 -3.304,8.66 0,11.962 6.886,6.886 15.93,10.328 24.975,10.328 9.045,0 18.09,-3.442 24.975,-10.328 3.304,-3.304 3.304,-8.66 0,-11.962 -3.304,-3.304 -8.66,-3.304 -11.962,0 -1.375,1.375 -2.918,2.481 -4.56,3.33 0.57,-4.761 1.188,-11.207 1.526,-18.715 35.536,4.307 65.342,32.906 72.674,71.192 0.024,0.123 0.046,0.256 0.068,0.39 3.243,20.235 12.435,38.431 26.584,52.621 28.875,28.955 44.777,67.409 44.777,108.278 0,41.751 -16.47,76.87 -47.629,101.561 -3.661,2.901 -4.277,8.222 -1.376,11.883 1.669,2.107 4.14,3.206 6.635,3.206 1.841,0 3.694,-0.598 5.248,-1.831 34.848,-27.615 54.04,-68.393 54.04,-114.821 0,-45.379 -17.656,-88.075 -49.715,-120.224 -11.624,-11.657 -19.182,-26.647 -21.861,-43.359 -0.052,-0.323 -0.104,-0.624 -0.157,-0.894 -8.852,-46.219 -45.538,-80.604 -89.106,-85.013 -0.274,-10.909 -1.362,-22.799 -3.93,-34.425 6.107,2.393 13.445,4.04 22.077,4.04 4.905,-10e-4 10.232,-0.541 15.982,-1.767 z m 17.403,-24.5 c 5.408,-14.865 16.422,-26.418 31.012,-32.531 14.589,-6.111 30.549,-5.859 44.938,0.712 l 45.012,20.556 -34.02,35.932 C 375.903,89.939 361.2,96.157 345.385,95.96 329.568,95.764 315.026,89.184 304.438,77.43 l -9.407,-10.442 z"
   id="path2671" />

	</g>

</g>
    <g
       id="g2677">
</g>
    <g
       id="g2679">
</g>
    <g
       id="g2681">
</g>
    <g
       id="g2683">
</g>
    <g
       id="g2685">
</g>
    <g
       id="g2687">
</g>
    <g
       id="g2689">
</g>
    <g
       id="g2691">
</g>
    <g
       id="g2693">
</g>
    <g
       id="g2695">
</g>
    <g
       id="g2697">
</g>
    <g
       id="g2699">
</g>
    <g
       id="g2701">
</g>
    <g
       id="g2703">
</g>
    <g
       id="g2705">
</g>
  </g>
</svg>
