<svg id="Capa_1" enable-background="new 0 0 512 512" height="512" viewBox="0 0 512 512" width="512" xmlns="http://www.w3.org/2000/svg"><g><g><g><path d="m496.5 305.7c4.418 0 8-3.582 8-8v-50.267c0-4.418-3.582-8-8-8h-481c-4.418 0-8 3.582-8 8v50.267c0 4.418 3.582 8 8 8z" fill="#cb835d"/><path d="m496.5 173.167c4.418 0 8-3.582 8-8v-50.267c0-4.418-3.582-8-8-8h-481c-4.418 0-8 3.582-8 8v50.267c0 4.418 3.582 8 8 8z" fill="#cb835d"/><path d="m496.5 239.433h-23c4.418 0 8 3.582 8 8v50.267c0 4.418-3.582 8-8 8h23c4.418 0 8-3.582 8-8v-50.267c0-4.418-3.582-8-8-8z" fill="#be7558"/><path d="m156.6 459.8h-99.4v-377.75c0-1.792.581-3.536 1.657-4.97l34.79-46.387c6.627-8.836 19.88-8.836 26.507 0l34.79 46.387c1.075 1.434 1.657 3.178 1.657 4.97v377.75z" fill="#eaa96a"/><path d="m305.7 459.8h-99.4v-377.75c0-1.792.581-3.536 1.657-4.97l34.79-46.387c6.627-8.836 19.88-8.836 26.507 0l34.79 46.387c1.075 1.434 1.657 3.178 1.657 4.97v377.75z" fill="#eaa96a"/><path d="m304.043 77.08-34.79-46.387c-6.088-8.117-17.756-8.755-24.753-1.957.619.601 1.215 1.239 1.753 1.957l34.79 46.387c1.075 1.434 1.657 3.178 1.657 4.97v377.75h23v-377.75c0-1.792-.581-3.536-1.657-4.97z" fill="#e5935d"/><path d="m454.8 459.8h-99.4v-377.75c0-1.792.581-3.536 1.657-4.97l34.79-46.387c6.627-8.836 19.88-8.836 26.507 0l34.79 46.387c1.075 1.434 1.657 3.178 1.657 4.97v377.75z" fill="#eaa96a"/><path d="m453.143 77.08-34.79-46.387c-6.088-8.117-17.756-8.755-24.753-1.957.619.601 1.215 1.239 1.753 1.957l34.79 46.387c1.075 1.434 1.657 3.178 1.657 4.97v377.75h23v-377.75c0-1.792-.581-3.536-1.657-4.97z" fill="#e5935d"/><path d="m496.5 106.9h-23c4.418 0 8 3.582 8 8v50.267c0 4.418-3.582 8-8 8h23c4.418 0 8-3.582 8-8v-50.267c0-4.418-3.582-8-8-8z" fill="#be7558"/><path d="m154.943 77.08-34.79-46.387c-6.088-8.117-17.756-8.755-24.753-1.957.619.601 1.215 1.239 1.753 1.957l34.79 46.387c1.075 1.434 1.657 3.178 1.657 4.97v377.75h23v-377.75c0-1.792-.581-3.536-1.657-4.97z" fill="#e5935d"/></g><path d="m471.367 454.807c10.61-14.122 16.81-31.745 16.559-50.826-.597-45.22-38.032-81.942-83.255-81.713-35.116.178-65.05 22.214-76.926 53.194-.826 2.153-3.338 3.123-5.419 2.13-8.298-3.959-17.678-6.012-27.585-5.565-30.254 1.367-54.608 26.303-55.292 56.58-.212 9.388 1.807 18.283 5.565 26.193v4.999h226.353z" fill="#a7dda7"/><path d="m471.367 454.807c10.61-14.122 16.81-31.745 16.559-50.826-.597-45.22-38.032-81.942-83.255-81.713-35.116.178-65.05 22.214-76.926 53.194-.826 2.153-3.338 3.123-5.419 2.13-8.298-3.959-17.678-6.012-27.585-5.565-30.254 1.367-54.608 26.303-55.292 56.58-.212 9.388 1.807 18.283 5.565 26.193v4.999h226.353z" fill="#a7dda7"/><path d="m404.671 322.268c-3.771.019-7.478.305-11.114.812 39.716 5.587 70.825 39.712 71.369 80.9.252 19.081-5.949 36.704-16.559 50.826l-.001 4.993h23l.001-4.993c10.61-14.122 16.81-31.745 16.559-50.826-.597-45.219-38.032-81.942-83.255-81.712z" fill="#8ace9b"/><path d="m496.5 487.933h-481c-4.418 0-8-3.582-8-8v-17.133c0-4.418 3.582-8 8-8h481c4.418 0 8 3.582 8 8v17.133c0 4.419-3.582 8-8 8z" fill="#d0d9e2"/><path d="m496.5 487.933h-481c-4.418 0-8-3.582-8-8v-17.133c0-4.418 3.582-8 8-8h481c4.418 0 8 3.582 8 8v17.133c0 4.419-3.582 8-8 8z" fill="#f4f2f4"/><path d="m496.5 454.8h-23c4.418 0 8 3.582 8 8v17.133c0 4.418-3.582 8-8 8h23c4.418 0 8-3.582 8-8v-17.133c0-4.418-3.582-8-8-8z" fill="#e2dfe2"/></g><g><path d="m90.334 128.392c-4.142 0-7.5 3.358-7.5 7.5v4.142c0 4.142 3.358 7.5 7.5 7.5s7.5-3.358 7.5-7.5v-4.142c0-4.143-3.358-7.5-7.5-7.5z"/><path d="m123.467 128.392c-4.142 0-7.5 3.358-7.5 7.5v4.142c0 4.142 3.358 7.5 7.5 7.5s7.5-3.358 7.5-7.5v-4.142c0-4.143-3.358-7.5-7.5-7.5z"/><path d="m388.533 128.392c-4.142 0-7.5 3.358-7.5 7.5v4.142c0 4.142 3.358 7.5 7.5 7.5s7.5-3.358 7.5-7.5v-4.142c0-4.143-3.358-7.5-7.5-7.5z"/><path d="m421.667 128.392c-4.142 0-7.5 3.358-7.5 7.5v4.142c0 4.142 3.358 7.5 7.5 7.5s7.5-3.358 7.5-7.5v-4.142c0-4.143-3.358-7.5-7.5-7.5z"/><path d="m239.433 128.392c-4.142 0-7.5 3.358-7.5 7.5v4.142c0 4.142 3.358 7.5 7.5 7.5s7.5-3.358 7.5-7.5v-4.142c0-4.143-3.358-7.5-7.5-7.5z"/><path d="m272.567 147.533c4.142 0 7.5-3.358 7.5-7.5v-4.142c0-4.142-3.358-7.5-7.5-7.5s-7.5 3.358-7.5 7.5v4.142c0 4.142 3.358 7.5 7.5 7.5z"/><path d="m496.5 180.667c8.547 0 15.5-6.953 15.5-15.5v-50.267c0-8.547-6.953-15.5-15.5-15.5h-34.2v-17.35c0-3.394-1.122-6.757-3.157-9.47l-34.79-46.387c-4.589-6.118-11.606-9.626-19.254-9.626s-14.665 3.509-19.253 9.626l-34.79 46.387c-2.036 2.714-3.157 6.077-3.157 9.47v17.35h-34.7v-17.35c0-3.393-1.121-6.755-3.157-9.47l-34.79-46.387c-4.589-6.118-11.606-9.626-19.253-9.626s-14.665 3.509-19.253 9.626l-34.79 46.387c-2.036 2.714-3.157 6.077-3.157 9.47v17.35h-34.7v-17.35c0-3.393-1.121-6.755-3.157-9.47l-34.79-46.387c-4.588-6.118-11.605-9.626-19.253-9.626-7.647 0-14.665 3.509-19.253 9.626l-34.788 46.386c-2.036 2.714-3.158 6.078-3.158 9.471v17.35h-34.2c-8.547 0-15.5 6.953-15.5 15.5v50.267c0 8.547 6.953 15.5 15.5 15.5h34.2v51.267h-34.2c-8.547 0-15.5 6.953-15.5 15.5v50.266c0 8.547 6.953 15.5 15.5 15.5h34.2v134.1h-34.2c-8.547 0-15.5 6.953-15.5 15.5v17.133c0 8.547 6.953 15.5 15.5 15.5h26.7c4.142 0 7.5-3.358 7.5-7.5s-3.358-7.5-7.5-7.5h-26.7c-.276 0-.5-.224-.5-.5v-17.133c0-.276.224-.5.5-.5h481c.276 0 .5.224.5.5v17.133c0 .276-.224.5-.5.5h-424.3c-4.142 0-7.5 3.358-7.5 7.5s3.358 7.5 7.5 7.5h424.3c8.547 0 15.5-6.953 15.5-15.5v-17.133c0-8.547-6.953-15.5-15.5-15.5h-11.503c6.856-12.919 10.436-27.276 10.436-42.2 0-28.123-12.92-53.283-33.133-69.863v-22.037h34.2c8.547 0 15.5-6.953 15.5-15.5v-50.267c0-8.547-6.953-15.5-15.5-15.5h-34.2v-51.267h34.2zm0-66.267c.276 0 .5.224.5.5v50.267c0 .276-.224.5-.5.5h-34.2v-18.133h9.067c4.142 0 7.5-3.358 7.5-7.5s-3.358-7.5-7.5-7.5h-9.067v-18.134zm-174.359 254.918c-2.907-1.186-5.897-2.159-8.941-2.915v-53.203h34.7v21.909c-11.013 9.004-19.93 20.64-25.759 34.209zm25.759-137.385h-34.7v-51.267h34.7zm0 33.134h-7.686c-4.142 0-7.5 3.358-7.5 7.5s3.358 7.5 7.5 7.5h7.686v18.133h-34.7v-51.267h34.7zm0-150.667v18.133h-7.686c-4.142 0-7.5 3.358-7.5 7.5s3.358 7.5 7.5 7.5h7.686v18.133h-34.7v-51.266zm-183.8 165.667h9.066c4.142 0 7.5-3.358 7.5-7.5s-3.358-7.5-7.5-7.5h-9.066v-18.134h34.7v51.267h-34.7zm34.7-48.134h-34.7v-51.267h34.7zm-34.7 81.267h34.7v134.1h-34.7zm34.7-198.8v51.267h-34.7v-18.133h9.066c4.142 0 7.5-3.358 7.5-7.5s-3.358-7.5-7.5-7.5h-9.066v-18.134zm-183.3 51.267c-.276 0-.5-.224-.5-.5v-50.267c0-.276.224-.5.5-.5h34.2v18.133h-9.067c-4.142 0-7.5 3.358-7.5 7.5s3.358 7.5 7.5 7.5h9.067v18.133h-34.2zm0 132.533c-.276 0-.5-.224-.5-.5v-50.267c0-.276.224-.5.5-.5h34.2v18.134h-9.067c-4.142 0-7.5 3.358-7.5 7.5s3.358 7.5 7.5 7.5h9.067v18.133zm49.2 149.1v-365.25c0-.168.055-.335.157-.47l34.79-46.387c1.729-2.305 4.372-3.626 7.254-3.626 2.881 0 5.524 1.322 7.253 3.626l34.79 46.387c.101.135.157.302.157.47v365.25zm415.733-42.2c0 15.22-4.464 29.729-12.929 42.2h-69.821l6.496-32.48c0-.002.001-.004.001-.007l8.274-41.375c.812-4.061-1.822-8.013-5.884-8.825-4.063-.812-8.013 1.822-8.825 5.884l-5.535 27.675-14.94-14.942c-2.929-2.929-7.678-2.929-10.606 0-2.929 2.929-2.929 7.678 0 10.606l22.012 22.012-6.29 31.451h-72.054l-14.49-28.987c-1.852-3.705-6.358-5.206-10.062-3.355-3.705 1.852-5.207 6.357-3.355 10.062l11.138 22.28h-43.555c-2.031-5.532-3.074-11.346-3.074-17.35 0-7.487 1.598-14.691 4.75-21.411 1.759-3.75.145-8.216-3.605-9.975-3.75-1.758-8.216-.145-9.975 3.605-4.094 8.729-6.17 18.076-6.17 27.781 0 5.94.79 11.741 2.331 17.35h-20.465v-365.249c0-.168.056-.335.157-.47l34.79-46.387c1.729-2.305 4.372-3.626 7.253-3.626s5.525 1.322 7.253 3.626l34.79 46.387c.101.135.157.302.157.47v282.436c-.262-.003-.522-.019-.784-.019-13.431 0-26.341 4.038-37.333 11.678-3.401 2.364-4.242 7.038-1.878 10.439s7.038 4.244 10.439 1.878c8.467-5.885 18.417-8.996 28.773-8.996 8.808 0 17.49 2.315 25.11 6.695 1.962 1.128 4.329 1.311 6.44.495 2.111-.815 3.741-2.541 4.436-4.695 4.84-15.009 14.021-27.64 25.888-36.722.439-.267.848-.577 1.222-.926 12.602-9.241 28.087-14.547 44.588-14.547 41.538.001 75.332 33.795 75.332 75.334zm-75.333-90.333c-15.11 0-29.507 3.719-42.2 10.408v-80.02c2.8 1.143 5.86 1.779 9.067 1.779 13.271 0 24.066-10.796 24.066-24.066 0-4.142-3.358-7.5-7.5-7.5s-7.5 3.358-7.5 7.5c0 4.999-4.067 9.066-9.066 9.066-5 0-9.067-4.067-9.067-9.066v-140.818c0-.168.056-.335.157-.47l34.79-46.387c1.728-2.305 4.372-3.626 7.253-3.626s5.525 1.322 7.254 3.626l34.791 46.388c.101.134.156.3.156.468v243.201c-12.604-6.687-26.967-10.483-42.201-10.483zm91.4-67.834c.276 0 .5.224.5.5v50.267c0 .276-.224.5-.5.5h-34.2v-18.133h9.067c4.142 0 7.5-3.358 7.5-7.5s-3.358-7.5-7.5-7.5h-9.067v-18.134z"/><path d="m90.334 260.925c-4.142 0-7.5 3.358-7.5 7.5v4.142c0 4.142 3.358 7.5 7.5 7.5s7.5-3.358 7.5-7.5v-4.142c0-4.142-3.358-7.5-7.5-7.5z"/><path d="m123.467 260.925c-4.142 0-7.5 3.358-7.5 7.5v4.142c0 4.142 3.358 7.5 7.5 7.5s7.5-3.358 7.5-7.5v-4.142c0-4.142-3.358-7.5-7.5-7.5z"/><path d="m388.533 260.925c-4.142 0-7.5 3.358-7.5 7.5v4.142c0 4.142 3.358 7.5 7.5 7.5s7.5-3.358 7.5-7.5v-4.142c0-4.142-3.358-7.5-7.5-7.5z"/><path d="m421.667 260.925c-4.142 0-7.5 3.358-7.5 7.5v4.142c0 4.142 3.358 7.5 7.5 7.5s7.5-3.358 7.5-7.5v-4.142c0-4.142-3.358-7.5-7.5-7.5z"/><path d="m239.433 260.925c-4.142 0-7.5 3.358-7.5 7.5v4.142c0 4.142 3.358 7.5 7.5 7.5s7.5-3.358 7.5-7.5v-4.142c0-4.142-3.358-7.5-7.5-7.5z"/><path d="m272.567 280.067c4.142 0 7.5-3.358 7.5-7.5v-4.142c0-4.142-3.358-7.5-7.5-7.5s-7.5 3.358-7.5 7.5v4.142c0 4.142 3.358 7.5 7.5 7.5z"/><path d="m90.334 298.2c-4.142 0-7.5 3.358-7.5 7.5v33.133c0 4.142 3.358 7.5 7.5 7.5s7.5-3.358 7.5-7.5v-33.133c0-4.142-3.358-7.5-7.5-7.5z"/><path d="m388.533 165.667c-4.142 0-7.5 3.358-7.5 7.5v16.567c0 4.142 3.358 7.5 7.5 7.5s7.5-3.358 7.5-7.5v-16.567c0-4.143-3.358-7.5-7.5-7.5z"/><path d="m90.334 364.467c-4.142 0-7.5 3.358-7.5 7.5v16.566c0 4.142 3.358 7.5 7.5 7.5s7.5-3.358 7.5-7.5v-16.566c0-4.142-3.358-7.5-7.5-7.5z"/></g></g></svg>