<?xml version="1.0" encoding="iso-8859-1"?>
<!-- Generator: Adobe Illustrator 19.0.0, SVG Export Plug-In . SVG Version: 6.00 Build 0)  -->
<svg version="1.1" id="Capa_1" xmlns="http://www.w3.org/2000/svg" xmlns:xlink="http://www.w3.org/1999/xlink" x="0px" y="0px"
	 viewBox="0 0 512 512" style="enable-background:new 0 0 512 512;" xml:space="preserve">
<g>
	<path style="fill:#997960;" d="M79.552,32.272c17.248,17.104,26.912,26.912,44.16,44.016v375.488h-88.32V76.288
		C52.64,59.184,62.304,49.376,79.552,32.272z"/>
	<path style="fill:#997960;" d="M194.368,32.272c17.248,17.104,26.912,26.912,44.16,44.016v375.488h-88.336V76.288
		C167.44,59.184,177.104,49.376,194.368,32.272z"/>
	<path style="fill:#997960;" d="M353.328,76.288v375.488h-88.48V76.288c17.248-17.104,26.912-26.912,44.16-44.016h0.144
		C326.416,49.376,336.08,59.184,353.328,76.288z"/>
	<path style="fill:#997960;" d="M467.984,76.288v375.488h-88.336V76.288c17.248-17.104,26.912-26.912,44.16-44.016
		C441.072,49.376,450.736,59.184,467.984,76.288z"/>
</g>
<g>
	<path style="fill:#A4856D;" d="M512,329.68c0,8.624-3.568,16.656-9.376,22.304c-5.648,5.648-13.536,9.216-22.304,9.216H31.52
		C14.128,361.2,0,347.072,0,329.68c0-8.768,3.568-16.656,9.216-22.448c5.792-5.648,13.536-9.216,22.304-9.216h448.8
		C497.728,298.016,512,312.144,512,329.68z"/>
	<path style="fill:#A4856D;" d="M0,158.08c0-8.624,3.568-16.656,9.216-22.304c5.808-5.664,13.536-9.232,22.304-9.232h448.8
		c17.392,0,31.68,14.128,31.68,31.52c0,8.768-3.568,16.656-9.376,22.448c-5.648,5.648-13.536,9.216-22.304,9.216H31.52
		C14.128,189.744,0,175.616,0,158.08z"/>
</g>
<g>
	<circle style="fill:#8E6D53;" cx="79.664" cy="158.128" r="14.928"/>
	<circle style="fill:#8E6D53;" cx="194.4" cy="158.128" r="14.928"/>
	<circle style="fill:#8E6D53;" cx="309.152" cy="158.128" r="14.928"/>
	<circle style="fill:#8E6D53;" cx="423.888" cy="158.128" r="14.928"/>
	<circle style="fill:#8E6D53;" cx="79.664" cy="329.616" r="14.928"/>
	<circle style="fill:#8E6D53;" cx="194.4" cy="329.616" r="14.928"/>
	<circle style="fill:#8E6D53;" cx="309.152" cy="329.616" r="14.928"/>
	<circle style="fill:#8E6D53;" cx="423.888" cy="329.616" r="14.928"/>
</g>
<path style="fill:#7FB241;" d="M490.592,440.32v39.408H14.864V440.32h26.912c-0.144-6.992-3.12-16.656-3.12-16.656
	c4.016,2.528,8.176,11.904,10.112,16.656h1.344c-0.144-7.584-7.44-24.384-8.32-26.464c14.576,7.44,16.064,22.752,16.208,26.464
	h1.344c0.144-3.424,1.344-19.04,16.208-26.464c-0.896,2.08-8.176,18.88-8.336,26.464H68.4c2.08-4.752,6.096-14.128,10.256-16.656
	c0,0-2.976,9.52-3.12,16.656h7.44c-0.144-7.136-3.12-16.656-3.12-16.656c4.16,2.528,8.176,11.904,10.256,16.656h1.344
	c-0.144-7.584-7.584-24.384-8.48-26.464c14.72,7.44,16.208,22.752,16.352,26.464h1.184c0.144-3.712,1.632-19.04,16.208-26.464
	c-0.896,2.08-8.176,18.88-8.32,26.464h1.344c1.936-4.752,6.096-14.128,10.112-16.656c0,0-2.976,9.664-3.12,16.656h269.6
	c-0.144-7.136-3.12-16.656-3.12-16.656c4.16,2.528,8.176,11.904,10.256,16.656h1.184c-0.144-7.584-7.44-24.384-8.32-26.464
	c14.864,7.44,16.064,23.056,16.208,26.464h1.344c0.144-3.712,1.632-19.04,16.208-26.464c-0.896,2.08-8.176,18.88-8.32,26.464h1.184
	c2.08-4.752,6.24-14.128,10.256-16.656c0,0-2.976,9.52-3.12,16.656h7.584c-0.144-6.992-3.12-16.656-3.12-16.656
	c4.016,2.528,8.176,11.904,10.112,16.656h1.344c-0.144-7.584-7.44-24.384-8.32-26.464c14.576,7.44,16.064,22.752,16.208,26.464
	h1.344c0.144-3.424,1.344-19.04,16.208-26.464c-0.896,2.08-8.176,18.88-8.32,26.464h1.184c2.08-4.752,6.096-14.128,10.256-16.656
	c0,0-2.976,9.52-3.12,16.656H490.592z"/>
<g>
</g>
<g>
</g>
<g>
</g>
<g>
</g>
<g>
</g>
<g>
</g>
<g>
</g>
<g>
</g>
<g>
</g>
<g>
</g>
<g>
</g>
<g>
</g>
<g>
</g>
<g>
</g>
<g>
</g>
</svg>
