<svg id="Flat" height="512" viewBox="0 0 512 512" width="512" xmlns="http://www.w3.org/2000/svg"><path d="m232 184v176a32 32 0 0 1 -32 32h-144a32 32 0 0 1 -32-32v-208a32 32 0 0 1 32-32h112z" fill="#e9eef2"/><path d="m232 184h-32a32 32 0 0 1 -32-32v-32z" fill="#c3c6c7"/><path d="m488 184v176a32 32 0 0 1 -32 32h-144a32 32 0 0 1 -32-32v-208a32 32 0 0 1 32-32h112z" fill="#e9eef2"/><path d="m488 184h-32a32 32 0 0 1 -32-32v-32z" fill="#c3c6c7"/><circle cx="352" cy="256" fill="#c3c6c7" r="8"/><circle cx="384" cy="256" fill="#c3c6c7" r="8"/><circle cx="416" cy="256" fill="#c3c6c7" r="8"/><path d="m376 24a8 8 0 0 0 -8 8v15.573c-5.939-3.987-13.93-7.884-24.617-11.447-23.459-7.819-54.492-12.126-87.383-12.126s-63.924 4.307-87.383 12.126c-33.57 11.19-40.617 25.685-40.617 35.874a8 8 0 0 0 16 0c0-13.048 43.631-32 112-32 55.231 0 94.312 12.368 107.294 24h-27.294a8 8 0 0 0 0 16h40a8 8 0 0 0 8-8v-40a8 8 0 0 0 -8-8z" fill="#6ed2f0"/><path d="m376 432a8 8 0 0 0 -8 8c0 13.048-43.631 32-112 32-55.231 0-94.312-12.368-107.294-24h27.294a8 8 0 0 0 0-16h-40a8 8 0 0 0 -8 8v40a8 8 0 0 0 16 0v-15.573c5.939 3.987 13.93 7.884 24.617 11.447 23.459 7.819 54.492 12.126 87.383 12.126s63.924-4.307 87.383-12.126c33.57-11.19 40.617-25.685 40.617-35.874a8 8 0 0 0 -8-8z" fill="#6ed2f0"/><g fill="#c3c6c7"><path d="m184 240h-64a8 8 0 0 1 0-16h64a8 8 0 0 1 0 16z"/><path d="m136 288h-64a8 8 0 0 1 0-16h64a8 8 0 0 1 0 16z"/><path d="m184 336h-48a8 8 0 0 1 0-16h48a8 8 0 0 1 0 16z"/><path d="m88 240h-16a8 8 0 0 1 0-16h16a8 8 0 0 1 0 16z"/><path d="m184 288h-16a8 8 0 0 1 0-16h16a8 8 0 0 1 0 16z"/><path d="m104 336h-32a8 8 0 0 1 0-16h32a8 8 0 0 1 0 16z"/><path d="m104 192h-32a8 8 0 0 1 0-16h32a8 8 0 0 1 0 16z"/></g></svg>