<?xml version="1.0" encoding="UTF-8" standalone="no"?>
<!-- Generator: Adobe Illustrator 16.0.0, SVG Export Plug-In . SVG Version: 6.00 Build 0)  -->

<svg
   version="1.1"
   id="Capa_1"
   x="0px"
   y="0px"
   width="500"
   height="500"
   viewBox="0 0 499.99999 499.99999"
   xml:space="preserve"
   sodipodi:docname="icon.svg"
   inkscape:version="1.1 (c68e22c387, 2021-05-23)"
   xmlns:inkscape="http://www.inkscape.org/namespaces/inkscape"
   xmlns:sodipodi="http://sodipodi.sourceforge.net/DTD/sodipodi-0.dtd"
   xmlns:xlink="http://www.w3.org/1999/xlink"
   xmlns="http://www.w3.org/2000/svg"
   xmlns:svg="http://www.w3.org/2000/svg"><defs
   id="defs39"><linearGradient
     inkscape:collect="always"
     id="linearGradient1587"><stop
       style="stop-color:#ff7f2a;stop-opacity:1"
       offset="0"
       id="stop1583" /><stop
       style="stop-color:#ffcc00;stop-opacity:1"
       offset="1"
       id="stop1585" /></linearGradient><radialGradient
     inkscape:collect="always"
     xlink:href="#linearGradient1587"
     id="radialGradient1581"
     cx="250.39651"
     cy="248.71645"
     fx="250.39651"
     fy="248.71645"
     r="212.55078"
     gradientTransform="matrix(1.7478061,0.00392422,-0.0025648,1.129139,-186.6103,-33.267367)"
     gradientUnits="userSpaceOnUse" /><filter
     inkscape:collect="always"
     style="color-interpolation-filters:sRGB"
     id="filter2239"
     x="-0.046842633"
     y="-0.0499087"
     width="1.0936853"
     height="1.0998174"><feGaussianBlur
       inkscape:collect="always"
       stdDeviation="9.0418971"
       id="feGaussianBlur2241" /></filter></defs><sodipodi:namedview
   id="namedview37"
   pagecolor="#ffffff"
   bordercolor="#666666"
   borderopacity="1.0"
   inkscape:pageshadow="2"
   inkscape:pageopacity="0.0"
   inkscape:pagecheckerboard="0"
   showgrid="false"
   inkscape:zoom="1.6254231"
   inkscape:cx="251.01157"
   inkscape:cy="275.31294"
   inkscape:window-width="2160"
   inkscape:window-height="1361"
   inkscape:window-x="2391"
   inkscape:window-y="-9"
   inkscape:window-maximized="1"
   inkscape:current-layer="Capa_1" />
<g
   id="g2219"
   transform="matrix(0.54581771,0,0,0.54581771,123.57088,119.57143)"
   style="fill:#165044;filter:url(#filter2239);opacity:0.82142857">
	<path
   d="M 395.42,82.072 C 351.671,38.323 293.503,14.229 231.632,14.229 169.761,14.229 111.593,38.323 67.844,82.072 24.094,125.822 0,183.989 0,245.861 c 0,41.319 11.02,81.888 31.868,117.317 20.225,34.369 49.143,63.117 83.629,83.137 3.174,1.842 6.642,2.719 10.066,2.719 6.925,0 13.664,-3.586 17.391,-10.008 5.569,-9.592 2.307,-21.885 -7.288,-27.455 C 76.764,377.38 40.173,313.884 40.173,245.86 c 0,-105.57 85.888,-191.458 191.458,-191.458 105.571,0 191.458,85.888 191.458,191.458 0,44.625 -12.084,81.852 -34.948,107.654 -18.607,21.002 -43.59,33.047 -68.539,33.047 -25.002,0 -53.332,-13.154 -63.748,-47.994 40.298,-8.321 70.687,-44.084 70.687,-86.809 v -58.534 c 0,-2.772 -2.249,-5.021 -5.021,-5.021 h -26.867 v -54.801 c 0,-11.093 -8.992,-20.086 -20.085,-20.086 -11.095,0 -20.088,8.993 -20.088,20.086 v 54.801 h -45.693 v -54.801 c 0,-11.093 -8.993,-20.086 -20.087,-20.086 -11.094,0 -20.086,8.993 -20.086,20.086 v 54.801 h -26.868 c -2.773,0 -5.021,2.249 -5.021,5.021 v 58.534 c 0,45.289 34.144,82.748 78.04,88.002 4.717,22.156 14.561,41.205 29.139,56.072 19.541,19.926 46.427,30.9 75.701,30.9 36.438,0 72.379,-16.977 98.607,-46.578 20.553,-23.195 45.053,-65.324 45.053,-134.296 C 463.263,183.989 439.17,125.821 395.42,82.072 Z"
   id="path2217"
   style="fill:#165044" />
</g><g
   id="g4"
   transform="matrix(0.54581771,0,0,0.54581771,123.57088,113.57143)"
   style="fill:#0055d4">
	<path
   d="M 395.42,82.072 C 351.671,38.323 293.503,14.229 231.632,14.229 169.761,14.229 111.593,38.323 67.844,82.072 24.094,125.822 0,183.989 0,245.861 c 0,41.319 11.02,81.888 31.868,117.317 20.225,34.369 49.143,63.117 83.629,83.137 3.174,1.842 6.642,2.719 10.066,2.719 6.925,0 13.664,-3.586 17.391,-10.008 5.569,-9.592 2.307,-21.885 -7.288,-27.455 C 76.764,377.38 40.173,313.884 40.173,245.86 c 0,-105.57 85.888,-191.458 191.458,-191.458 105.571,0 191.458,85.888 191.458,191.458 0,44.625 -12.084,81.852 -34.948,107.654 -18.607,21.002 -43.59,33.047 -68.539,33.047 -25.002,0 -53.332,-13.154 -63.748,-47.994 40.298,-8.321 70.687,-44.084 70.687,-86.809 v -58.534 c 0,-2.772 -2.249,-5.021 -5.021,-5.021 h -26.867 v -54.801 c 0,-11.093 -8.992,-20.086 -20.085,-20.086 -11.095,0 -20.088,8.993 -20.088,20.086 v 54.801 h -45.693 v -54.801 c 0,-11.093 -8.993,-20.086 -20.087,-20.086 -11.094,0 -20.086,8.993 -20.086,20.086 v 54.801 h -26.868 c -2.773,0 -5.021,2.249 -5.021,5.021 v 58.534 c 0,45.289 34.144,82.748 78.04,88.002 4.717,22.156 14.561,41.205 29.139,56.072 19.541,19.926 46.427,30.9 75.701,30.9 36.438,0 72.379,-16.977 98.607,-46.578 20.553,-23.195 45.053,-65.324 45.053,-134.296 C 463.263,183.989 439.17,125.821 395.42,82.072 Z"
   id="path2"
   style="fill:#0055d4" />
</g>
<g
   id="g6">
</g>
<g
   id="g8">
</g>
<g
   id="g10">
</g>
<g
   id="g12">
</g>
<g
   id="g14">
</g>
<g
   id="g16">
</g>
<g
   id="g18">
</g>
<g
   id="g20">
</g>
<g
   id="g22">
</g>
<g
   id="g24">
</g>
<g
   id="g26">
</g>
<g
   id="g28">
</g>
<g
   id="g30">
</g>
<g
   id="g32">
</g>
<g
   id="g34">
</g>
<path
   id="path1276"
   style="fill:url(#radialGradient1581);stroke:none;stroke-width:9.44666;stroke-dasharray:28.3401, 9.44666;stroke-dashoffset:0.944666;fill-opacity:1"
   d="M 250 10 L 221.56641 102.91797 A 150 150 0 0 1 250 100 A 150 150 0 0 1 278.37891 102.74414 L 250 10 z M 143.72461 65.925781 L 158.82812 131.41992 A 150 150 0 0 1 192.89258 111.75391 L 143.72461 65.925781 z M 356.27539 65.925781 L 307.39062 111.48828 A 150 150 0 0 1 341.26758 131.00977 L 356.27539 65.925781 z M 42.152344 130 L 108.4082 201.08398 A 150 150 0 0 1 136.8418 151.83398 L 42.152344 130 z M 457.8457 130 L 363.33008 151.79492 A 150 150 0 0 1 391.69141 200.97656 L 457.8457 130 z M 101.7207 230.33398 L 37.449219 250 L 101.7207 269.66797 A 150 150 0 0 1 100 250 A 150 150 0 0 1 101.7207 230.33398 z M 398.68359 230.45898 A 150 150 0 0 1 400 250 A 150 150 0 0 1 398.2793 269.66602 L 462.55078 250 L 398.68359 230.45898 z M 108.40625 298.91602 L 42.152344 370 L 136.8418 348.16602 A 150 150 0 0 1 108.40625 298.91602 z M 391.5918 298.91797 A 150 150 0 0 1 363.1582 348.16602 L 457.8457 370 L 391.5918 298.91797 z M 158.82812 368.58008 L 143.72461 434.07422 L 192.89258 388.24609 A 150 150 0 0 1 158.82812 368.58008 z M 341.17188 368.58008 A 150 150 0 0 1 307.10742 388.24609 L 356.27539 434.07422 L 341.17188 368.58008 z M 221.56641 397.08008 L 250 490 L 278.43164 397.08203 A 150 150 0 0 1 250 400 A 150 150 0 0 1 221.56641 397.08008 z " /></svg>
