<?xml version="1.0" encoding="UTF-8" standalone="no"?>
<!-- Created with Inkscape (http://www.inkscape.org/) -->

<svg
   width="250mm"
   height="250mm"
   viewBox="0 0 250 250.00001"
   version="1.1"
   id="svg5"
   inkscape:version="1.1 (c68e22c387, 2021-05-23)"
   sodipodi:docname="pad.svg"
   xmlns:inkscape="http://www.inkscape.org/namespaces/inkscape"
   xmlns:sodipodi="http://sodipodi.sourceforge.net/DTD/sodipodi-0.dtd"
   xmlns="http://www.w3.org/2000/svg"
   xmlns:svg="http://www.w3.org/2000/svg">
  <sodipodi:namedview
     id="namedview7"
     pagecolor="#ffffff"
     bordercolor="#666666"
     borderopacity="1.0"
     inkscape:pageshadow="2"
     inkscape:pageopacity="0.0"
     inkscape:pagecheckerboard="0"
     inkscape:document-units="mm"
     showgrid="false"
     inkscape:zoom="1.3416246"
     inkscape:cx="514.30185"
     inkscape:cy="566.85008"
     inkscape:window-width="2160"
     inkscape:window-height="1361"
     inkscape:window-x="2391"
     inkscape:window-y="-9"
     inkscape:window-maximized="1"
     inkscape:current-layer="layer1"
     fit-margin-top="0"
     fit-margin-left="0"
     fit-margin-right="0"
     fit-margin-bottom="0" />
  <defs
     id="defs2">
    <inkscape:perspective
       sodipodi:type="inkscape:persp3d"
       inkscape:vp_x="-73.752125 : 256.41627 : 1"
       inkscape:vp_y="105.3432 : 635.61662 : 1"
       inkscape:vp_z="321.39869 : 256.41627 : 1"
       inkscape:persp3d-origin="123.82332 : 133.57333 : 1"
       id="perspective1329" />
  </defs>
  <g
     inkscape:label="Capa 1"
     inkscape:groupmode="layer"
     id="layer1"
     transform="translate(-4.0247569,-135.72953)">
    <g
       sodipodi:type="inkscape:box3d"
       id="g1331"
       style="fill:#979797;stroke-width:20;stroke-miterlimit:3.7"
       inkscape:perspectiveID="#perspective1329"
       inkscape:corner0="1.0307059 : 0.059504027 : 0 : 1"
       inkscape:corner7="-0.17595606 : -0.11295585 : 0.5751714 : 1">
      <path
         sodipodi:type="inkscape:box3dside"
         id="path1343"
         style="fill:#e9e9ff;fill-rule:evenodd;stroke:none;stroke-width:18.1412;stroke-linejoin:round"
         inkscape:box3dsidetype="11"
         d="M 93.668309,166.93602 228.83026,198.05781 244.84759,258.11763 92.58221,195.77177 Z"
         points="228.83026,198.05781 244.84759,258.11763 92.58221,195.77177 93.668309,166.93602 " />
      <path
         sodipodi:type="inkscape:box3dside"
         id="path1333"
         style="fill:#353564;fill-rule:evenodd;stroke:none;stroke-width:18.1412;stroke-linejoin:round"
         inkscape:box3dsidetype="6"
         d="M 29.895323,177.28883 22.74849,215.704 92.58221,195.77177 93.668309,166.93602 Z"
         points="22.74849,215.704 92.58221,195.77177 93.668309,166.93602 29.895323,177.28883 " />
      <path
         sodipodi:type="inkscape:box3dside"
         id="path1341"
         style="fill:#afafde;fill-rule:evenodd;stroke:none;stroke-width:18.1412;stroke-linejoin:round"
         inkscape:box3dsidetype="13"
         d="M 22.74849,215.704 179.67293,362.30245 244.84759,258.11763 92.58221,195.77177 Z"
         points="179.67293,362.30245 244.84759,258.11763 92.58221,195.77177 22.74849,215.704 " />
      <path
         sodipodi:type="inkscape:box3dside"
         id="path1335"
         style="fill:#e9c6af;fill-rule:evenodd;stroke:none;stroke-width:18.1412;stroke-linejoin:round"
         inkscape:box3dsidetype="5"
         d="M 29.895323,177.28883 165.95009,242.80907 228.83026,198.05781 93.668309,166.93602 Z"
         points="165.95009,242.80907 228.83026,198.05781 93.668309,166.93602 29.895323,177.28883 " />
      <path
         sodipodi:type="inkscape:box3dside"
         id="path1339"
         style="fill:#d38d5f;fill-rule:evenodd;stroke:none;stroke-width:18.1412;stroke-linejoin:round"
         inkscape:box3dsidetype="14"
         d="m 165.95009,242.80907 13.72284,119.49338 65.17466,-104.18482 -16.01733,-60.05982 z"
         points="179.67293,362.30245 244.84759,258.11763 228.83026,198.05781 165.95009,242.80907 " />
      <path
         sodipodi:type="inkscape:box3dside"
         id="path1337"
         style="fill:#a05a2c;fill-rule:evenodd;stroke:none;stroke-width:18.1412;stroke-linejoin:round"
         inkscape:box3dsidetype="3"
         d="M 29.895323,177.28883 165.95009,242.80907 179.67293,362.30245 22.74849,215.704 Z"
         points="165.95009,242.80907 179.67293,362.30245 22.74849,215.704 29.895323,177.28883 " />
    </g>
    <path
       style="fill:none;stroke:#000000;stroke-width:1;stroke-linecap:butt;stroke-linejoin:round;stroke-opacity:1;stroke-miterlimit:4;stroke-dasharray:none"
       d="M 22.748489,215.704 29.895323,177.28883 165.95009,242.80907 179.67293,362.30245 22.748489,215.704"
       id="path1326" />
    <path
       style="fill:none;stroke:#000000;stroke-width:1;stroke-linecap:round;stroke-linejoin:round;stroke-opacity:1;stroke-miterlimit:4;stroke-dasharray:none"
       d="m 165.95009,242.80907 62.88016,-44.75126 16.01734,60.05982 c 0,0 -65.17466,104.18482 -65.17466,104.18482 0,0 -13.72284,-119.49338 -13.72284,-119.49338 l 62.88017,-44.75126 c 0,0 -135.161951,-31.12179 -135.161951,-31.12179 0,0 -63.772986,10.35281 -63.772986,10.35281 l 136.054767,65.52024"
       id="path1328" />
  </g>
</svg>
