<svg id="Capa_1" enable-background="new 0 0 512.194 512.194" height="512" viewBox="0 0 512.194 512.194" width="512" xmlns="http://www.w3.org/2000/svg"><g><g><path d="m295.736 128.567v146.28l-39.63 97.11h-.01l-39.64-17.84v-225.55c0-6.86 5.91-12.41 13.21-12.41h52.86c7.3 0 13.21 5.55 13.21 12.41z" fill="#fc0"/></g><path d="m295.736 128.567v146.28l-39.63 97.11h-.01v-255.8h26.43c7.3 0 13.21 5.55 13.21 12.41z" fill="#ff8756"/><g><path d="m209.757 37.857v76.1c0 8.796-7.49 15.628-16.18 14.96-47.99-3.8-141.139 24.8-170.129 44.22-12.913 8.642-29.08-5.843-21.51-19.66 47.15-86.17 158.039-126.35 190.949-130.5 8.949-1.135 16.87 5.868 16.87 14.88z" fill="#554e56"/></g><g><path d="m488.745 173.137c-28.99-19.42-122.139-48.04-170.129-44.22-8.704.669-16.18-6.179-16.18-14.96v-76.1c0-8.965 7.866-16.019 16.87-14.88 32.91 4.15 143.799 44.33 190.949 130.5 7.585 13.846-8.659 28.261-21.51 19.66z" fill="#403b41"/></g><path d="m295.736 332.693v166.993c0 6.85-5.91 12.41-13.21 12.41h-52.86c-7.3 0-13.21-5.56-13.21-12.41v-145.57l39.64-39.63z" fill="#ff4a4a"/><g><path d="m332.396 122.587c-.51 16.88-13.77 29.95-30.61 29.95h-91.229c-16.87 0-30.61-13.72-30.63-30.59l-.15-91.02c0-.01 0-.01 0-.01-.02-16.88 13.7-30.64 30.58-30.68l45.74-.07 45.63-.07h.04c16.965 0 30.65 13.717 30.65 30.63-.001 6.226-.021 91.86-.021 91.86z" fill="#766d78"/></g><path d="m256.096 314.487 39.64-39.64v224.84c0 6.85-5.91 12.41-13.21 12.41h-26.43z" fill="#c73c50"/><path d="m332.396 122.587c-.51 16.88-13.77 29.95-30.61 29.95h-45.69v-152.37l45.63-.07h.04c16.965 0 30.65 13.717 30.65 30.63 0 6.226-.02 91.86-.02 91.86z" fill="#554e56"/></g></svg>