<svg id="Capa_1" enable-background="new 0 0 512.037 512.037" height="512" viewBox="0 0 512.037 512.037" width="512" xmlns="http://www.w3.org/2000/svg" xmlns:xlink="http://www.w3.org/1999/xlink"><linearGradient id="SVGID_1_" gradientUnits="userSpaceOnUse" x1="286.028" x2="286.028" y1="451" y2="31"><stop offset="0" stop-color="#ffbef9"/><stop offset="1" stop-color="#fff1ff"/></linearGradient><linearGradient id="SVGID_2_" gradientUnits="userSpaceOnUse" x1="256.018" x2="256.018" y1="512.033" y2=".003"><stop offset="0" stop-color="#a93aff"/><stop offset="1" stop-color="#ff81ff"/></linearGradient><g id="TRAPPIST-1_Planet_Lineup_1_"><g><g><path d="m166.028 121.003h-15v-15c0-8.291-6.709-15-15-15s-15 6.709-15 15v15h-15c-8.291 0-15 6.709-15 15s6.709 15 15 15h15v15c0 8.291 6.709 15 15 15s15-6.709 15-15v-15h15c8.291 0 15-6.709 15-15s-6.709-15-15-15zm300 210h-15v-15c0-8.291-6.709-15-15-15s-15 6.709-15 15v15h-15c-8.291 0-15 6.709-15 15s6.709 15 15 15h15v15c0 8.291 6.709 15 15 15s15-6.709 15-15v-15h15c8.291 0 15-6.709 15-15s-6.709-15-15-15zm-119.998 89.997c-8.284 0-15 6.716-15 15 0 8.285 6.716 15 15 15 8.285 0 15-6.715 15-15 0-8.284-6.715-15-15-15zm-120-390c-8.284 0-15 6.716-15 15 0 8.286 6.716 15 15 15 8.285 0 15-6.714 15-15 0-8.284-6.715-15-15-15z" fill="url(#SVGID_1_)"/></g></g><g><g><path d="m39.581 281.539c-52.775 52.744-52.774 138.169 0 190.913 52.745 52.775 138.169 52.774 190.913 0 52.632-52.632 52.632-138.281 0-190.913-52.661-52.661-138.281-52.631-190.913 0zm234.332-149.491c-29.224 29.238-29.224 76.831 0 106.069 29.244 29.244 76.837 29.232 106.069 0 29.224-29.238 29.224-76.831 0-106.069s-76.816-29.238-106.069 0zm224.946-119.293c-16.978-16.978-46.611-17.021-63.647-.015-17.546 17.546-17.632 46.015 0 63.647 17.616 17.617 46.099 17.564 63.633 0 17.616-17.617 17.557-46.088.014-63.632z" fill="url(#SVGID_2_)"/></g></g></g></svg>