<?xml version="1.0" encoding="iso-8859-1"?>
<!-- Generator: Adobe Illustrator 19.0.0, SVG Export Plug-In . SVG Version: 6.00 Build 0)  -->
<svg version="1.1" id="Capa_1" xmlns="http://www.w3.org/2000/svg" xmlns:xlink="http://www.w3.org/1999/xlink" x="0px" y="0px"
	 viewBox="0 0 384.008 384.008" style="enable-background:new 0 0 384.008 384.008;" xml:space="preserve">
<circle style="fill:#4DD0E1;" cx="320" cy="64.004" r="48"/>
<circle style="fill:#FF7043;" cx="64" cy="64.004" r="48"/>
<circle style="fill:#E0F7FA;" cx="64" cy="320.004" r="48"/>
<g>
	<path style="fill:#012E52;" d="M320,0.004c-29.752,0-54.76,20.44-61.896,48H125.896c-7.136-27.56-32.144-48-61.896-48
		c-35.288,0-64,28.712-64,64c0,29.752,20.44,54.76,48,61.896v132.216c-27.56,7.128-48,32.136-48,61.888c0,35.288,28.712,64,64,64
		c29.752,0,54.76-20.44,61.896-48H200c8.832,0,16-7.168,16-16s-7.168-16-16-16h-74.104c-5.808-22.432-23.464-40.088-45.896-45.896
		V125.9c22.432-5.808,40.088-23.464,45.896-45.896h132.216c7.136,27.56,32.136,48,61.896,48c35.288,0,64-28.712,64-64
		S355.288,0.004,320,0.004z M96,320.004c0,17.648-14.352,32-32,32s-32-14.352-32-32s14.352-32,32-32S96,302.356,96,320.004z
		 M64,96.004c-17.648,0-32-14.352-32-32s14.352-32,32-32s32,14.352,32,32S81.648,96.004,64,96.004z M320,96.004
		c-17.648,0-32-14.352-32-32s14.352-32,32-32s32,14.352,32,32S337.648,96.004,320,96.004z"/>
	<path style="fill:#012E52;" d="M256,336.004c8.832,0,16-7.168,16-16s-7.168-16-16-16h-8c-8.832,0-16,7.168-16,16s7.168,16,16,16
		H256z"/>
	<path style="fill:#012E52;" d="M312,336.004c8.832,0,16-7.168,16-16s-7.168-16-16-16h-8c-8.832,0-16,7.168-16,16s7.168,16,16,16
		H312z"/>
	<path style="fill:#012E52;" d="M368,304.004h-8c-8.832,0-16,7.168-16,16s7.168,16,16,16h8c8.832,0,16-7.168,16-16
		S376.832,304.004,368,304.004z"/>
</g>
<g>
</g>
<g>
</g>
<g>
</g>
<g>
</g>
<g>
</g>
<g>
</g>
<g>
</g>
<g>
</g>
<g>
</g>
<g>
</g>
<g>
</g>
<g>
</g>
<g>
</g>
<g>
</g>
<g>
</g>
</svg>
