<svg id="Capa_1" enable-background="new 0 0 512 512" height="512" viewBox="0 0 512 512" width="512" xmlns="http://www.w3.org/2000/svg"><g><path d="m15 482c-8.284 0-15 6.716-15 15s6.716 15 15 15h482c8.284 0 15-6.716 15-15s-6.716-15-15-15h-45v-61h45c4.821 0 9.35-2.318 12.169-6.229 2.819-3.912 3.586-8.94 2.062-13.514-3.343-10.028-56.328-168.984-60-180-2.042-6.125-7.775-10.257-14.231-10.257h-86.142c4.491-9.464 7.557-19.566 9.058-30h46.084c8.284 0 15-6.716 15-15s-6.716-15-15-15h-46.076c-2.552-17.763-9.56-34.106-19.861-47.849l32.61-32.61c5.858-5.858 5.858-15.355 0-21.213-5.856-5.858-15.354-5.858-21.213 0l-32.611 32.61c-13.743-10.301-30.086-17.31-47.849-19.862v-47.076c0-8.284-6.716-15-15-15s-15 6.716-15 15v47.076c-17.763 2.552-34.106 9.56-47.849 19.862l-32.611-32.61c-5.857-5.858-15.355-5.858-21.213 0s-5.858 15.355 0 21.213l32.61 32.61c-10.301 13.743-17.309 30.086-19.861 47.849h-46.076c-8.284 0-15 6.716-15 15s6.716 15 15 15h46.084c1.501 10.434 4.567 20.536 9.058 30h-86.142c-6.456 0-12.188 4.132-14.23 10.257-3.672 11.017-56.659 169.977-60 180-1.524 4.574-.758 9.603 2.062 13.514 2.819 3.911 7.347 6.229 12.168 6.229h45v61zm407 0h-332v-61h332zm54.189-91h-87.481l-5-30h82.481zm-30-90 10 30h-77.481l-5-30zm-20-60 10 30h-67.481l-5-30zm-72.896 120 5 30h-87.293v-30zm-10-60 5 30h-77.293v-30zm-5-30h-67.293v-30h62.293zm-82.293-180c41.355 0 75 33.645 75 75 0 16.319-5.293 32.066-15.006 45h-119.988c-9.712-12.933-15.006-28.681-15.006-45 0-41.355 33.645-75 75-75zm-77.293 150h62.293v30h-67.293zm-10 60h72.293v30h-77.293zm-10 60h82.293v30h-87.293zm-72.895-120h62.481l-5 30h-67.481zm-20 60h72.481l-5 30h-77.481zm-30 90 10-30h82.481l-5 30z"/></g></svg>