<svg id="Capa_1" enable-background="new 0 0 512 512" height="512" viewBox="0 0 512 512" width="512" xmlns="http://www.w3.org/2000/svg"><g><path d="m193.499 147.294-22.354 22.354 21.211 21.211 22.354-22.354c7.866 5.215 16.736 9.029 26.294 10.977v31.518h30v-31.518c9.558-1.948 18.428-5.762 26.294-10.977l22.354 22.354 21.211-21.211-22.354-22.354c5.215-7.866 9.029-16.736 10.977-26.294h31.518v-30h-31.518c-1.948-9.558-5.762-18.428-10.977-26.294l22.354-22.354-21.211-21.211-22.354 22.354c-7.866-5.215-16.736-9.029-26.294-10.977v-32.518h-30v32.518c-9.558 1.948-18.428 5.762-26.294 10.977l-22.354-22.354-21.211 21.211 22.354 22.354c-5.215 7.866-9.029 16.736-10.977 26.294h-31.518v30h31.518c1.948 9.558 5.762 18.428 10.977 26.294z"/><path d="m421.004 451h90.992l-7.5-60h-79.944l5.622 30h-127.412l-3.75 30h91.992v31h-30v30h90v-30h-30z"/><path d="m146.023 241-11.255 60h242.402l-11.244-60z"/><path d="m117.884 391h276.152l-11.244-60h-253.653z"/><path d="m418.933 361h81.813l-7.5-60h-85.556z"/><path d="m121.004 451h91.992l-3.75-30h-127.515l5.627-30h-79.854l-7.5 60h91v31h-30v30h90v-30h-30z"/><path d="m104.241 301h-85.487l-7.5 60h81.733z"/><path d="m45.537 203.501h120.934v29.997h-120.934z" transform="matrix(.496 -.868 .868 .496 -136.3 202.131)"/><path d="m391.005 158.033h29.997v120.934h-29.997z" transform="matrix(.868 -.496 .496 .868 -54.913 230.223)"/><path d="m271.004 421h-30v61h-30v30h90v-30h-30z"/></g></svg>