<svg id="Layer_1" enable-background="new 0 0 512 512" height="512" viewBox="0 0 512 512" width="512" xmlns="http://www.w3.org/2000/svg"><g><path d="m304.2 497h-96.4c-8.284 0-15-6.716-15-15v-49.267c0-8.284 6.716-15 15-15h96.4c8.284 0 15 6.716 15 15v49.267c0 8.284-6.716 15-15 15z" fill="#334a5e"/><path d="m256 497h48.2c8.284 0 15-6.716 15-15v-49.267c0-8.284-6.716-15-15-15h-48.2z" fill="#1f2a4d"/><path d="m368.467 512h-224.934c-8.284 0-15-6.716-15-15s6.716-15 15-15h224.934c8.284 0 15 6.716 15 15s-6.716 15-15 15z" fill="#486a6f"/><g fill="#ffc800"><path d="m256 190.667c-8.284 0-15-6.716-15-15v-16.067c0-8.284 6.716-15 15-15s15 6.716 15 15v16.066c0 8.285-6.716 15.001-15 15.001z"/><path d="m151.567 70.167h-16.067c-8.284 0-15-6.716-15-15s6.716-15 15-15h16.067c8.284 0 15 6.716 15 15s-6.716 15-15 15z"/><path d="m376.5 70.167h-16.066c-8.284 0-15-6.716-15-15s6.716-15 15-15h16.066c8.284 0 15 6.716 15 15s-6.716 15-15 15z"/><path d="m160.184 150.983c-5.858-5.858-5.858-15.355 0-21.213l11.367-11.367c5.858-5.857 15.355-5.858 21.213 0s5.858 15.355 0 21.213l-11.367 11.367c-5.85 5.849-15.346 5.866-21.213 0z"/><path d="m330.603 150.982-11.367-11.367c-5.858-5.858-5.858-15.355 0-21.213 5.857-5.858 15.355-5.858 21.213 0l11.367 11.367c5.858 5.858 5.858 15.355 0 21.213-5.858 5.86-15.357 5.857-21.213 0z"/></g><path d="m510.416 426.025-96.4-192.8c-2.54-5.082-7.734-8.292-13.416-8.292h-289.2c-5.682 0-10.875 3.21-13.417 8.292l-96.4 192.8c-2.325 4.649-2.076 10.172.657 14.594s7.561 7.114 12.76 7.114h482c5.198 0 10.026-2.692 12.76-7.114 2.733-4.422 2.981-9.944.656-14.594z" fill="#5bc1eb"/><path d="m509.76 440.619c2.733-4.422 2.981-9.944.656-14.594l-96.4-192.8c-2.54-5.082-7.734-8.292-13.416-8.292h-144.6v222.8h241c5.198 0 10.026-2.691 12.76-7.114z" fill="#418bb3"/><path d="m64.996 299.2h127.336l-12.378 74.267h-152.091z" fill="#418bb3"/><path d="m204.71 224.933h102.58l12.378 74.267h-127.336z" fill="#418bb3"/><path d="m447.003 299.2 37.134 74.267h-152.091l-12.378-74.267z" fill="#27547c"/><path d="m344.424 447.733h-176.847l12.377-74.266h152.092z" fill="#418bb3"/><path d="m307.29 224.933h-51.29v74.267h63.668z" fill="#27547c"/><path d="m332.046 373.467h-76.046v74.266h88.424z" fill="#27547c"/><path d="m368.467 482h-112.467v30h112.467c8.284 0 15-6.716 15-15s-6.716-15-15-15z" fill="#334a5e"/><circle cx="256" cy="55.167" fill="#fcfab8" r="55.167"/><path d="m256 110.333v-110.333c30.419 0 55.167 24.748 55.167 55.167s-24.748 55.166-55.167 55.166z" fill="#ffeb3c"/></g></svg>