<svg id="Layer_1" enable-background="new 0 0 256 256" height="512" viewBox="0 0 256 256" width="512" xmlns="http://www.w3.org/2000/svg"><path d="m161.352 69.251-106.544 44.351c-1.175.489-2.163 1.339-2.823 2.426l-40.793 67.214c-1.501 2.474.039 5.673 2.909 6.043l127.246 16.374c1.723.222 3.326.998 4.569 2.212l38.454 37.56c1.359 1.327 3.593 1.074 4.62-.524l44.215-68.805c.798-1.242.847-2.822.128-4.111l-27.333-48.991-38.712-52.114c-1.369-1.843-3.817-2.517-5.936-1.635z" fill="#a4c9ff"/><path d="m186.516 246.266-3.516-58.141-18.039-118.947c-.002-.001-.003-.001-.005-.002l-13.706 90.398-7.79 46.665.03.028c.892.385 1.72.914 2.424 1.602l13.949 13.625 26.637 24.772z" fill="#4671c6"/><path d="m8 250c-.536 0-1.072-.215-1.466-.639-.752-.81-.704-2.075.105-2.827l89.86-83.407v-155.127c0-1.104.896-2 2-2s2 .896 2 2v156c0 .556-.231 1.087-.64 1.466l-90.5 84c-.383.357-.872.534-1.359.534z" fill="#3762cc"/><path d="m248.002 193c-.117 0-.237-.011-.357-.032l-149.5-27c-1.087-.196-1.809-1.237-1.612-2.324.195-1.086 1.231-1.808 2.323-1.613l149.5 27c1.087.196 1.809 1.237 1.612 2.324-.174.967-1.017 1.645-1.966 1.645z" fill="#3762cc"/><path d="m206 123-38.712-52.114c-1.369-1.843-3.816-2.517-5.935-1.634l-83.421 34.725-16.562 27.29c-4.307 7.097.113 16.278 8.346 17.337l78.587 10.112c2.153.277 4.158 1.247 5.711 2.764l26.405 25.791c1.359 1.327 3.593 1.074 4.62-.524l30.257-47.084z" fill="#e0ebfc"/><path d="m99.989 94.794-1.587 2.359c-2.823 4.196-.201 9.892 4.823 10.476l99.187 11.513 2.091 1.842-37.215-50.099c-1.369-1.843-3.816-2.517-5.935-1.634z" fill="#f9cfcf"/><path d="m182.992 188.074-18.031-118.896c-.002-.001-.003-.001-.005-.002l-13.706 90.398c1.015.473 1.952 1.112 2.764 1.905l26.405 25.791c.717.701 1.675.949 2.573.804z" fill="#a4c9ff"/><path d="m164.956 69.176-6.797 44.829 13.844 1.607-7.042-46.434z" fill="#f9a7a7"/><path d="m186.458 248.284c-1.298 0-2.545-.503-3.487-1.423l-38.454-37.56c-.926-.905-2.143-1.494-3.426-1.659l-127.246-16.373c-2.022-.26-3.757-1.512-4.641-3.349-.884-1.836-.78-3.973.277-5.715l40.793-67.214c.887-1.461 2.188-2.58 3.765-3.235l106.545-44.35c2.974-1.236 6.391-.296 8.309 2.289l38.713 52.114c.052.07.099.143.141.218l27.332 48.989c1.081 1.938 1.008 4.301-.191 6.167l-44.216 68.805c-.815 1.269-2.143 2.095-3.641 2.265-.192.02-.383.031-.573.031zm-24.337-177.187-106.545 44.351c-.788.328-1.438.887-1.882 1.618l-40.793 67.214c-.358.59-.392 1.284-.093 1.905.299.622.862 1.028 1.547 1.117l127.245 16.373c2.141.275 4.168 1.258 5.711 2.765l38.454 37.56c.296.29.636.294.813.278.176-.02.504-.105.728-.453l44.216-68.805c.399-.622.424-1.41.063-2.056l-27.269-48.875-38.635-52.009c-.821-1.109-2.285-1.513-3.56-.983z" fill="#3762cc"/></svg>