<svg id="color" enable-background="new 0 0 24 24" height="512" viewBox="0 0 24 24" width="512" xmlns="http://www.w3.org/2000/svg"><path d="m5 5c1.378 0 2.5-1.122 2.5-2.5s-1.122-2.5-2.5-2.5-2.5 1.122-2.5 2.5 1.122 2.5 2.5 2.5z" fill="#2196f3"/><path d="m7.25 6h-4.5c-1.517 0-2.75 1.233-2.75 2.75v.5c0 .414.336.75.75.75h8.5c.414 0 .75-.336.75-.75v-.5c0-1.517-1.233-2.75-2.75-2.75z" fill="#2196f3"/><path d="m5 0c-1.378 0-2.5 1.122-2.5 2.5s1.122 2.5 2.5 2.5z" fill="#1d83d4"/><path d="m5 6h-2.25c-1.517 0-2.75 1.233-2.75 2.75v.5c0 .414.336.75.75.75h4.25z" fill="#1d83d4"/><path d="m19 19c-1.378 0-2.5-1.122-2.5-2.5s1.122-2.5 2.5-2.5 2.5 1.122 2.5 2.5-1.122 2.5-2.5 2.5z" fill="#4caf50"/><path d="m23.25 24h-8.5c-.414 0-.75-.336-.75-.75v-.5c0-1.517 1.233-2.75 2.75-2.75h4.5c1.517 0 2.75 1.233 2.75 2.75v.5c0 .414-.336.75-.75.75z" fill="#4caf50"/><path d="m19 14c-1.378 0-2.5 1.122-2.5 2.5s1.122 2.5 2.5 2.5z" fill="#429846"/><path d="m19 20h-2.25c-1.517 0-2.75 1.233-2.75 2.75v.5c0 .414.336.75.75.75h4.25z" fill="#429846"/><path d="m20.25 11c-.414 0-.75-.336-.75-.75v-4.5c0-.689-.561-1.25-1.25-1.25h-7.5c-.414 0-.75-.336-.75-.75s.336-.75.75-.75h7.5c1.517 0 2.75 1.233 2.75 2.75v4.5c0 .414-.336.75-.75.75z" fill="#607d8b"/><path d="m20.25 11c-.192 0-.384-.073-.53-.22l-1.75-1.75c-.214-.214-.279-.537-.163-.817s.39-.463.693-.463h3.5c.303 0 .577.183.693.463s.052.603-.163.817l-1.75 1.75c-.146.147-.338.22-.53.22z" fill="#607d8b"/><path d="m20.246 11h.001s0 0-.001 0zm-.002 0h.002c-.001 0-.002 0-.002 0zm-.003 0h.002c-.001 0-.001 0-.002 0zm-.269-.053c.083.033.174.052.269.053-.091-.001-.183-.019-.269-.053zm-1.59-7.197h-8.382c0 .414.336.75.75.75h7.5c.689 0 1.25.561 1.25 1.25v2h.75v-2.132c0-1.032-.836-1.868-1.868-1.868z" fill="#546d79"/><path d="m20.25 7.75h-.75-1c-.303 0-.577.183-.693.463s-.052.603.163.817l1.75 1.75c.074.074.161.13.253.167.086.034.177.052.269.053h.002.001.002.001.001.002v-3.25z" fill="#546d79"/><path d="m11.25 21h-5.5c-1.517 0-2.75-1.233-2.75-2.75v-4.5c0-.414.336-.75.75-.75s.75.336.75.75v4.5c0 .689.561 1.25 1.25 1.25h5.5c.414 0 .75.336.75.75s-.336.75-.75.75z" fill="#607d8b"/><path d="m5.5 16.25h-3.5c-.303 0-.577-.183-.693-.463s-.052-.603.163-.817l1.75-1.75c.293-.293.768-.293 1.061 0l1.75 1.75c.214.214.279.537.163.817-.117.28-.391.463-.694.463z" fill="#607d8b"/><g fill="#546d79"><path d="m4.5 16.25h-.75v2.03c0 1.088.882 1.97 1.97 1.97h6.28c0-.414-.336-.75-.75-.75h-5.5c-.689 0-1.25-.561-1.25-1.25zm-.221-3.032c.001.001.001.001.002.002-.001-.001-.002-.001-.002-.002zm-.002-.002s.001.001.001.001-.001 0-.001-.001zm-.002-.001c.001 0 .001 0 0 0zm-.001-.002s0 .001 0 0zm-.524-.213c.099 0 .199.02.292.059-.09-.038-.188-.059-.292-.059z"/><path d="m3.75 13v3.25h.75 1c.303 0 .577-.183.693-.463s.052-.603-.163-.817l-1.75-1.75c-.001-.001-.001-.001-.002-.002s-.001-.001-.001-.001 0 0-.001-.001c0 0-.001-.001-.001-.001s-.001-.001-.001-.001 0 0-.001-.001c0 0-.001-.001-.001-.001-.069-.067-.147-.118-.23-.153-.093-.039-.193-.059-.292-.059z"/></g></svg>