<?xml version="1.0" encoding="UTF-8" standalone="no"?>
<!-- Created with Inkscape (http://www.inkscape.org/) -->

<svg
   xmlns:dc="http://purl.org/dc/elements/1.1/"
   xmlns:cc="http://creativecommons.org/ns#"
   xmlns:rdf="http://www.w3.org/1999/02/22-rdf-syntax-ns#"
   xmlns:svg="http://www.w3.org/2000/svg"
   xmlns="http://www.w3.org/2000/svg"
   xmlns:sodipodi="http://sodipodi.sourceforge.net/DTD/sodipodi-0.dtd"
   xmlns:inkscape="http://www.inkscape.org/namespaces/inkscape"
   width="64mm"
   height="64mm"
   viewBox="0 0 64 64"
   version="1.1"
   id="svg8"
   inkscape:version="0.92.3 (2405546, 2018-03-11)"
   sodipodi:docname="Elevation.svg">
  <defs
     id="defs2" />
  <sodipodi:namedview
     id="base"
     pagecolor="#ffffff"
     bordercolor="#666666"
     borderopacity="1.0"
     inkscape:pageopacity="0.0"
     inkscape:pageshadow="2"
     inkscape:zoom="0.35"
     inkscape:cx="-588.57143"
     inkscape:cy="560"
     inkscape:document-units="mm"
     inkscape:current-layer="layer1"
     showgrid="false"
     inkscape:window-width="1920"
     inkscape:window-height="1001"
     inkscape:window-x="-9"
     inkscape:window-y="-9"
     inkscape:window-maximized="1" />
  <metadata
     id="metadata5">
    <rdf:RDF>
      <cc:Work
         rdf:about="">
        <dc:format>image/svg+xml</dc:format>
        <dc:type
           rdf:resource="http://purl.org/dc/dcmitype/StillImage" />
        <dc:title></dc:title>
      </cc:Work>
    </rdf:RDF>
  </metadata>
  <g
     inkscape:label="Capa 1"
     inkscape:groupmode="layer"
     id="layer1"
     transform="translate(0,-233)">
    <path
       style="fill:#000000;stroke-width:0.49809507"
       d="m 57.471456,293.69756 c -1.039483,-7.62176 -3.54308,-14.58473 -7.301896,-20.30791 -1.28341,-1.95412 -3.158523,-5.45461 -4.166917,-7.77889 -1.134464,-2.61485 -2.723054,-5.23103 -4.166916,-6.86228 -4.352609,-4.91757 -5.264084,-7.46564 -2.218397,-6.20164 l 1.448487,0.60113 0.884986,-3.32954 c 1.447907,-5.44741 1.505177,-5.56213 2.645759,-5.30004 l 1.06464,0.24465 -1.036544,4.96778 -1.036546,4.96782 0.694948,2.17894 c 0.49994,1.56752 1.423352,2.76514 3.290724,4.26794 1.427676,1.14897 3.854328,3.37526 5.392561,4.94735 3.161039,3.23062 3.954024,3.48854 4.300289,1.3987 0.211152,-1.27437 0.435605,-0.919 1.768539,2.80001 2.228261,6.21703 2.390667,7.12009 2.147682,11.94208 -0.145159,2.88069 -0.05032,5.38089 0.300759,7.92872 0.282026,2.04667 0.514397,3.97243 0.516383,4.27943 0.002,0.30702 -0.976158,0.55819 -2.17365,0.55819 -1.783677,0 -2.209372,-0.23543 -2.354891,-1.30244 z m -35.470254,-1.57275 c 0,-1.39796 -0.756322,-4.62124 -2.19882,-9.37086 -4.568165,-15.04132 -5.828597,-24.37045 -4.7748,-35.34084 0.198085,-2.06214 0.61086,-4.44057 0.917278,-5.28542 0.531326,-1.46497 0.549346,-1.31889 0.389182,3.15451 -0.440408,12.30067 1.586221,23.07451 6.934586,36.86524 1.306661,3.36921 2.606975,7.12414 2.889587,8.3443 0.48016,2.07305 0.471448,2.26913 -0.132904,2.99124 -0.35571,0.42502 -1.406653,0.77276 -2.335428,0.77276 -1.636147,0 -1.688681,-0.0663 -1.688681,-2.13093 z m 8.667187,0.26526 c 0,-1.3866 -1.197247,-4.645 -4.662265,-12.68869 -3.81435,-8.85464 -4.870836,-11.79769 -5.809092,-16.18242 -1.791282,-8.37108 -2.529424,-14.0652 -2.529424,-19.51224 0,-4.33913 0.100425,-5.10442 0.88206,-6.72173 1.152851,-2.38539 1.518181,-2.3107 1.083957,0.2216 -0.700648,4.08602 0.319758,13.5011 2.508291,23.14347 1.017519,4.48305 4.641654,13.23152 8.716938,21.04223 2.913221,5.58351 4.693351,10.43366 4.321902,11.77551 -0.119967,0.43337 -1.184327,0.78794 -2.365245,0.78794 -2.069583,0 -2.147122,-0.0672 -2.147122,-1.86567 z m 9.00054,0.73268 c 0,-1.81705 -2.510614,-7.41033 -7.203776,-16.04895 -6.504134,-11.97204 -8.190687,-16.56112 -9.954544,-27.0861 -0.656807,-3.91917 -0.846713,-6.28057 -0.77334,-9.6162 0.08989,-4.08642 0.167076,-4.47306 1.018988,-5.10435 0.663205,-0.49142 1.443273,-0.31675 2.781186,0.62279 1.569099,1.10189 2.070119,1.92874 3.208569,5.29522 0.742013,2.19421 1.282478,4.13822 1.201034,4.32006 -0.08144,0.18186 -0.942575,-0.23662 -1.913626,-0.92991 -1.703229,-1.21605 -1.782013,-1.21026 -2.232115,0.16414 -0.630986,1.92658 -0.587828,5.92648 0.0988,9.15701 0.963248,4.53197 4.234196,11.56969 10.445607,22.47459 5.857692,10.28386 7.65681,14.19672 7.65681,16.65262 0,1.02037 -0.372476,1.23218 -2.166796,1.23218 -1.717941,0 -2.166798,-0.2347 -2.166798,-1.13299 z m 8.167158,-2.79919 c -0.859479,-3.33668 -2.063667,-5.661 -8.566345,-16.53471 -8.580225,-14.34779 -9.020608,-15.19351 -10.156656,-19.50542 -1.08624,-4.12285 -0.955032,-6.98573 0.35576,-7.76246 0.543428,-0.32202 1.237244,-0.25057 1.583428,0.16308 0.800714,0.95675 0.777276,0.32515 -0.106398,-2.86706 -0.926243,-3.34601 -0.411617,-2.88275 1.164496,1.04829 1.030562,2.57039 1.144105,3.15679 0.687034,3.54839 -0.421692,0.36129 -0.503153,1.08019 -0.354364,3.12721 0.106263,1.46197 0.369799,3.13317 0.585635,3.71382 0.21584,0.58064 2.360726,4.17535 4.766417,7.98827 11.798248,18.69972 14.067224,22.92245 14.87937,27.69155 0.532332,3.12599 0.427762,3.32241 -1.754859,3.29636 l -2.083459,-0.0249 z m -42.7121279,0.93327 c 0.4673638,-1.24006 0.9411514,-3.50071 1.0528611,-5.02368 0.208737,-2.84575 3.5304744,-23.43015 4.3913168,-27.21244 0.26486,-1.16372 0.412334,-2.27041 0.327721,-2.45933 -0.08462,-0.18882 -1.0829457,3.61 -2.2185173,8.442 -2.1220914,9.02977 -5.2541296,20.09928 -6.1639289,21.78506 -0.4485813,0.83118 -0.5134117,0.55294 -0.5134117,-2.20343 0,-2.79217 0.210899,-3.66329 1.8352525,-7.58043 1.7762504,-4.28341 3.5363699,-9.69969 5.1566015,-15.86802 0.959333,-3.65224 0.68631,-3.05705 -1.9309814,4.20953 -1.8331868,5.08957 -5.3220631,12.38299 -4.5727135,9.55912 0.708191,-2.66876 3.2558696,-9.71149 3.8481289,-10.63766 0.82343,-1.28768 6.1294499,-13.92263 5.8467739,-13.92263 -0.116063,0 -0.954643,1.55295 -1.86351,3.45098 -1.7653831,3.68674 -2.0908332,3.7351 -0.9443211,0.14029 0.6749791,-2.11633 4.4808181,-8.80103 5.0107541,-8.80103 0.138527,0 0.01739,1.42339 -0.269204,3.16308 -0.286589,1.73968 -0.597279,6.34474 -0.69042,10.23345 -0.149692,6.24965 -0.06851,7.7393 0.699369,12.83293 0.477795,3.16942 1.552865,8.65863 2.389045,12.19826 0.836181,3.53962 1.475144,7.14239 1.419919,8.00609 -0.08905,1.39276 -0.35284,1.59518 -2.33199,1.78951 l -2.23158,0.21915 0.187259,-2.57632 c 0.127794,-1.75821 -0.157339,-5.11298 -0.897922,-10.56459 -0.990207,-7.2892 -1.068716,-8.58102 -0.897046,-14.76062 0.103475,-3.72477 0.493128,-8.93485 0.865897,-11.57798 0.372768,-2.64311 0.630702,-4.91076 0.573186,-5.03915 -0.223125,-0.49816 -1.859307,8.64959 -2.559571,14.31035 -0.570063,4.60824 -0.7543005,8.3235 -0.8151054,16.43721 -0.1011595,13.49833 -0.1494402,13.70498 -3.2022368,13.70498 h -2.351378 z m 45.2122779,-31.47098 -1.833443,-1.62629 1.165399,-0.24688 c 1.505474,-0.3189 1.934244,-1.1734 2.204867,-4.39402 l 0.221049,-2.63067 1.108666,2.89153 c 1.660398,4.3305 1.441987,7.84748 -0.476991,7.68089 -0.305855,-0.0266 -1.381153,-0.7801 -2.389547,-1.67456 z m -4.10128,-3.26332 c -0.43747,-0.25325 -0.507127,-0.60068 -0.255925,-1.27646 0.189831,-0.51067 0.706096,-3.07826 1.147255,-5.70576 0.728634,-4.33966 0.897118,-4.79863 1.839351,-5.01048 0.893081,-0.20084 1.036542,0.007 1.032185,1.48848 -0.0094,3.17398 -0.875899,8.26539 -1.642745,9.65175 -0.765619,1.38414 -1.023005,1.48763 -2.120121,0.85247 z m -11.066298,-7.25048 c -0.916722,-0.54068 -1.441753,-1.03398 -1.166736,-1.09624 0.371955,-0.0841 0.306084,-0.4743 -0.257183,-1.52309 -0.879143,-1.63697 -0.701775,-2.02087 1.256749,-2.72008 1.045983,-0.37344 1.371529,-0.27975 1.198605,0.34493 -0.130568,0.47168 -0.716076,0.86272 -1.301125,0.86898 -0.809405,0.008 -0.944173,0.18396 -0.563694,0.73286 0.730841,1.05449 2.706174,0.85403 3.666888,-0.37213 0.458361,-0.585 1.355914,-1.0755 1.994563,-1.08998 l 1.161183,-0.0264 -1.161183,2.5884 c -1.373887,3.06255 -2.564381,3.62789 -4.828067,2.29275 z M 12.500631,244.3909 c 0.113312,-0.40931 0.356032,-0.74423 0.539376,-0.74423 0.183345,0 0.240643,0.33492 0.12733,0.74423 -0.113313,0.40935 -0.356033,0.74426 -0.539377,0.74426 -0.183344,0 -0.240642,-0.33491 -0.127329,-0.74426 z"
       id="path4529"
       inkscape:connector-curvature="0" />
  </g>
</svg>
