<svg id="Layer_1" enable-background="new 0 0 512.203 512.203" height="512" viewBox="0 0 512.203 512.203" width="512" xmlns="http://www.w3.org/2000/svg"><g><path d="m457.463 246.396c-8.379-10.434-19.124-18.758-31.172-24.303 3.261-10.71 4.908-21.834 4.908-33.232 0-27.334-9.801-53.791-27.597-74.496-14.979-17.429-34.818-29.902-56.752-35.87-2.823-19.661-11.922-37.797-26.274-51.995-17.276-17.089-40.173-26.5-64.474-26.5s-47.199 9.411-64.474 26.5c-14.352 14.198-23.451 32.334-26.274 51.995-21.934 5.968-41.772 18.441-56.752 35.87-17.796 20.705-27.597 47.162-27.597 74.496 0 11.398 1.646 22.522 4.908 33.232-12.048 5.545-22.793 13.869-31.172 24.303-12.163 15.145-18.861 34.201-18.861 53.658 0 47.303 38.484 85.787 85.787 85.787h268.871c47.303 0 85.787-38.484 85.787-85.787-.001-19.456-6.699-38.513-18.862-53.658z" fill="#00cc76"/><path d="m476.324 300.055c0-19.457-6.698-38.514-18.861-53.658-8.379-10.434-19.124-18.758-31.172-24.303 3.261-10.71 4.908-21.834 4.908-33.232 0-27.334-9.801-53.791-27.597-74.496-14.979-17.429-34.818-29.902-56.752-35.87-2.823-19.661-11.922-37.797-26.274-51.995-17.276-17.09-40.173-26.501-64.474-26.501v385.842h134.436c47.302 0 85.786-38.485 85.786-85.787z" fill="#00aa95"/><path d="m326.04 217.476-21.213-21.213-33.725 33.725v-99.405h-30v45.299l-33.726-33.725-21.213 21.213 54.939 54.938v65.785l-33.726-33.726-21.213 21.213 54.939 54.939v170.684h30v-224.79z" fill="#c1674c"/><path d="m304.827 196.263-33.725 33.725v-99.405h-15v366.62h15v-224.79l54.938-54.937z" fill="#8c4a50"/><g><path d="m117.387 482.203h277.43v30h-277.43z" fill="#a5e887"/></g><path d="m256.102 482.203h138.715v30h-138.715z" fill="#00cc76"/></g></svg>