<?xml version="1.0" encoding="UTF-8" standalone="no"?>
<svg
   xmlns:dc="http://purl.org/dc/elements/1.1/"
   xmlns:cc="http://creativecommons.org/ns#"
   xmlns:rdf="http://www.w3.org/1999/02/22-rdf-syntax-ns#"
   xmlns:svg="http://www.w3.org/2000/svg"
   xmlns="http://www.w3.org/2000/svg"
   xmlns:sodipodi="http://sodipodi.sourceforge.net/DTD/sodipodi-0.dtd"
   xmlns:inkscape="http://www.inkscape.org/namespaces/inkscape"
   inkscape:version="1.0 (4035a4fb49, 2020-05-01)"
   sodipodi:docname="trench.svg"
   id="svg66"
   version="1.1"
   width="512pt"
   viewBox="0 0 512 512"
   height="512pt">
  <metadata
     id="metadata72">
    <rdf:RDF>
      <cc:Work
         rdf:about="">
        <dc:format>image/svg+xml</dc:format>
        <dc:type
           rdf:resource="http://purl.org/dc/dcmitype/StillImage" />
      </cc:Work>
    </rdf:RDF>
  </metadata>
  <defs
     id="defs70" />
  <sodipodi:namedview
     inkscape:current-layer="svg66"
     inkscape:window-maximized="1"
     inkscape:window-y="-9"
     inkscape:window-x="-9"
     inkscape:cy="341.33333"
     inkscape:cx="341.33333"
     inkscape:zoom="1.0766602"
     showgrid="false"
     id="namedview68"
     inkscape:window-height="1361"
     inkscape:window-width="2160"
     inkscape:pageshadow="2"
     inkscape:pageopacity="0"
     guidetolerance="10"
     gridtolerance="10"
     objecttolerance="10"
     borderopacity="1"
     bordercolor="#666666"
     pagecolor="#ffffff" />
  <path
     id="path2"
     fill="#ffb655"
     d="m359.78125 71.285156v288.496094h-207.5625v-288.496094h-144.71875v433.214844h497v-433.214844zm0 0" />
  <path
     id="path4"
     fill="#a4e276"
     d="m7.5 15.5c18.089844 0 18.089844-8 36.183594-8 18.089844 0 18.089844 8 36.179687 8 18.089844 0 18.089844-8 36.175781-8 18.089844 0 18.089844 8 36.179688 8v55.785156h-144.71875zm0 0" />
  <path
     id="path6"
     fill="#a4e276"
     d="m359.78125 15.5c18.089844 0 18.089844-8 36.183594-8 18.089844 0 18.089844 8 36.179687 8 18.089844 0 18.089844-8 36.175781-8 18.089844 0 18.089844 8 36.179688 8v55.785156h-144.71875zm0 0" />
  <path
     id="path16"
     fill="#ff7956"
     d="m359.78125 71.285156h30v288.496094h-30zm0 0" />
  <path
     id="path18"
     fill="#ff7956"
     d="m7.5 71.285156h30v433.214844h-30zm0 0" />
  <path
     id="path20"
     fill="#64c37d"
     d="m58.683594 10.179688c-3.6875-1.476563-7.984375-2.679688-15-2.679688-18.09375 0-18.09375 8-36.183594 8v55.785156h30v-55.785156c11.070312 0 15.367188-2.996094 21.183594-5.320312zm0 0" />
  <path
     id="path22"
     fill="#64c37d"
     d="m410.964844 10.179688c-3.6875-1.476563-7.984375-2.679688-15-2.679688-18.09375 0-18.09375 8-36.183594 8v55.785156h30v-55.785156c11.070312 0 15.367188-2.996094 21.183594-5.320312zm0 0" />
  <path
     id="path28"
     d="m144.71875 91.289062v275.992188h67.402344v-15h-52.402344v-260.992188zm0 0" />
  <path
     id="path30"
     d="m299.871094 367.28125h67.410156v-275.992188h-15v260.992188h-52.410156zm0 0" />
  <path
     id="path32"
     d="m497 497h-482v-405.714844h-15v420.714844h512v-420.714844h-15zm0 0" />
  <path
     id="path34"
     d="m159.71875 8h-7.5c-7.460938 0-10.8125-1.480469-15.054688-3.359375-4.917968-2.175781-10.492187-4.640625-21.125-4.640625-10.628906 0-16.203124 2.464844-21.121093 4.640625-4.242188 1.878906-7.59375 3.359375-15.054688 3.359375-7.460937 0-10.8125-1.480469-15.058593-3.359375-4.917969-2.175781-10.492188-4.640625-21.121094-4.640625-10.632813 0-16.207032 2.464844-21.125 4.640625-4.246094 1.878906-7.597656 3.359375-15.058594 3.359375h-7.5v70.785156h159.71875zm-15 55.785156h-129.71875v-41.257812c6.054688-.820313 10.015625-2.574219 13.625-4.167969 4.242188-1.878906 7.597656-3.359375 15.058594-3.359375 7.460937 0 10.8125 1.480469 15.054687 3.359375 4.917969 2.175781 10.496094 4.640625 21.125 4.640625 10.628907 0 16.203125-2.464844 21.121094-4.640625 4.246094-1.878906 7.597656-3.359375 15.054687-3.359375 7.460938 0 10.8125 1.480469 15.058594 3.359375 3.605469 1.59375 7.570313 3.347656 13.621094 4.167969zm0 0" />
  <path
     id="path36"
     d="m504.5 8c-7.460938 0-10.8125-1.480469-15.054688-3.359375-4.917968-2.175781-10.496093-4.640625-21.125-4.640625-10.628906 0-16.203124 2.464844-21.121093 4.640625-4.242188 1.878906-7.59375 3.359375-15.054688 3.359375-7.460937 0-10.8125-1.480469-15.058593-3.359375-4.917969-2.175781-10.492188-4.640625-21.121094-4.640625-10.632813 0-16.207032 2.464844-21.125 4.640625-4.246094 1.878906-7.597656 3.359375-15.058594 3.359375h-7.5v70.785156h159.71875v-70.785156zm-7.5 55.785156h-129.71875v-41.257812c6.054688-.820313 10.015625-2.574219 13.625-4.167969 4.242188-1.878906 7.597656-3.359375 15.058594-3.359375 7.460937 0 10.8125 1.480469 15.054687 3.359375 4.917969 2.175781 10.496094 4.640625 21.125 4.640625 10.628907 0 16.203125-2.464844 21.121094-4.640625 4.246094-1.878906 7.597656-3.359375 15.058594-3.359375 7.457031 0 10.8125 1.480469 15.054687 3.359375 3.609375 1.59375 7.570313 3.347656 13.621094 4.167969zm0 0" />
  <path
     id="path40"
     d="m131.007812 423.90625h15v15h-15zm0 0" />
  <path
     id="path42"
     d="m348.007812 456.929688h15v15h-15zm0 0" />
  <path
     id="path44"
     d="m386.429688 430.050781h15v15h-15zm0 0" />
  <path
     id="path46"
     d="m423.140625 260.738281h15v15h-15zm0 0" />
  <path
     id="path48"
     d="m84.722656 403.050781h15v15h-15zm0 0" />
  <path
     id="path50"
     d="m384.929688 294.355469h15v15h-15zm0 0" />
  <path
     id="path52"
     d="m50.222656 130.597656h15v15h-15zm0 0" />
  <path
     id="path54"
     d="m92.222656 98.785156h15v15h-15zm0 0" />
  <path
     id="path56"
     d="m430.640625 313.023438h15v15h-15zm0 0" />
  <path
     id="path58"
     d="m57.722656 439.050781h15v15h-15zm0 0" />
  <g
     id="g64"
     fill="#fff">
    <path
       id="path60"
       d="m487 318.523438h-15v-172.238282h15zm0-182.238282h-15v-15h15zm0-25h-15v-15h15zm0 0" />
    <path
       id="path62"
       d="m486.5 53.785156h-25.71875v-15h25.71875zm-35.71875 0h-15v-15h15zm-25 0h-15v-15h15zm0 0" />
  </g>
</svg>
